<svg width="36" height="36" viewBox="0 0 36 36" fill="none" xmlns="http://www.w3.org/2000/svg">
<rect width="36" height="36" rx="18" fill="#262B30"/>
<circle cx="17.999" cy="13" r="4" stroke="white"/>
<path d="M25.499 23.8117L25.499 23.8136C25.5001 24.1107 25.3924 24.4054 25.1832 24.6501C24.9835 24.8838 24.7015 25.0591 24.3749 25.1428L11.6234 25.1367C11.2976 25.0531 11.016 24.8784 10.8165 24.6457L10.8165 24.6457C10.6074 24.4018 10.499 24.108 10.499 23.8118C10.499 22.0204 11.2772 20.2923 12.6794 19.0107L12.6794 19.0107C14.0832 17.7276 15.996 17 17.9986 17C20.0013 17 21.9141 17.7276 23.3178 19.0107L23.3178 19.0107C24.7202 20.2925 25.499 22.0206 25.499 23.8117Z" stroke="white"/>
</svg>
