<svg width="32" height="32" viewBox="0 0 32 32" fill="none" xmlns="http://www.w3.org/2000/svg">
<g id="icon/thumbs 1">
<path id="Vector (Stroke)" fill-rule="evenodd" clip-rule="evenodd" d="M14.8745 6.5H15.1995C15.9686 6.5 16.7062 6.80553 17.2501 7.34939C17.7939 7.89324 18.0995 8.63086 18.0995 9.39998V12.1H22.1248C22.4282 12.097 22.7286 12.1597 23.0054 12.284C23.2831 12.4086 23.5304 12.5922 23.7302 12.8219C23.93 13.0516 24.0774 13.322 24.1623 13.6144C24.2471 13.9067 24.2674 14.214 24.2218 14.515L23.1178 21.7149C23.1177 21.715 23.1178 21.7147 23.1178 21.7149C23.0417 22.2154 22.7874 22.6722 22.4016 23.0001C22.0164 23.3274 21.5262 23.5049 21.0208 23.4999H7.49951V13.7H11.6746L14.8745 6.5ZM11.4995 14.7H8.49951V22.4999H11.4995V14.7ZM12.4995 22.4999H21.0291C21.2944 22.5029 21.5518 22.41 21.7539 22.2381C21.9561 22.0663 22.0893 21.8272 22.1291 21.5649L23.2331 14.3649C23.2331 14.3648 23.2331 14.365 23.2331 14.3649C23.257 14.2074 23.2463 14.0462 23.2019 13.8932C23.1575 13.74 23.0802 13.5984 22.9756 13.4781C22.871 13.3577 22.7414 13.2616 22.5959 13.1963C22.4505 13.131 22.2925 13.0981 22.1331 13.0999L22.1274 13.1L17.0995 13.1V9.39998C17.0995 8.89608 16.8993 8.41281 16.543 8.05649C16.2614 7.77491 15.9005 7.59084 15.5128 7.52601L12.4995 14.3061V22.4999Z" fill="currentColor"/>
</g>
</svg>
