<svg width="24" height="24" viewBox="0 0 24 24" fill="none" xmlns="http://www.w3.org/2000/svg">
<path d="M12 6C8.68661 6 6 8.68661 6 12C6 15.3134 8.68661 18 12 18C15.3134 18 18 15.3134 18 12C18 8.68661 15.3134 6 12 6ZM14.2152 14.2795L13.3313 14.2754L12 12.6884L10.6701 14.2741L9.78482 14.2781C9.72589 14.2781 9.67768 14.2312 9.67768 14.171C9.67768 14.1455 9.68705 14.1214 9.70312 14.1013L11.4455 12.0254L9.70312 9.95089C9.68694 9.93126 9.67796 9.90669 9.67768 9.88125C9.67768 9.82232 9.72589 9.77411 9.78482 9.77411L10.6701 9.77813L12 11.3652L13.3299 9.77946L14.2138 9.77545C14.2728 9.77545 14.321 9.82232 14.321 9.88259C14.321 9.90804 14.3116 9.93214 14.2955 9.95223L12.5558 12.0268L14.2969 14.1027C14.3129 14.1228 14.3223 14.1469 14.3223 14.1723C14.3223 14.2312 14.2741 14.2795 14.2152 14.2795Z" fill="#71777B"/>
</svg>
