<svg width="32" height="33" viewBox="0 0 32 33" fill="none" xmlns="http://www.w3.org/2000/svg">
<g id="icon/publications">
<path id="Rectangle 77185" d="M8.18228 7.57312H4.99854V19.5731H26.9985V7.57312H23.8436" stroke="currentColor"/>
<path id="Rectangle 77186" d="M12.9985 19.5731V24.5731H18.9985V19.5731" stroke="currentColor" stroke-linejoin="round"/>
<path id="Vector 21" d="M10.9985 24.5731H20.9985" stroke="currentColor" stroke-linecap="square" stroke-linejoin="round"/>
<g id="Vector">
<mask id="path-4-inside-1_1712_10547" fill="currentColor">
<path d="M15.9958 15.9263C15.9472 15.9265 15.8991 15.9166 15.8544 15.8975C14.6881 15.3976 13.4322 15.1398 12.1631 15.1398C10.894 15.1398 9.63817 15.3976 8.47188 15.8975C8.36141 15.9451 8.23447 15.9338 8.134 15.8677C8.03352 15.8017 7.97305 15.6895 7.9729 15.5692V5.51537C7.97275 5.37273 8.05737 5.2438 8.18831 5.18717C9.44418 4.64879 10.7962 4.37122 12.1623 4.37122C13.5285 4.37122 14.8807 4.64879 16.1364 5.18717C16.2673 5.2438 16.3519 5.37289 16.3518 5.51537V15.5692C16.3518 15.664 16.3141 15.7549 16.2471 15.822C16.1801 15.8889 16.0891 15.9265 15.9942 15.9263L15.9958 15.9263ZM12.1614 14.4249C13.3471 14.4243 14.5237 14.6332 15.6368 15.0419V5.75538C13.406 4.86541 10.9187 4.86541 8.68805 5.75538V15.0419C9.80112 14.6332 10.9774 14.4243 12.1631 14.4249H12.1614Z"/>
<path d="M15.9958 15.9263C16.0444 15.9265 16.0923 15.9166 16.1371 15.8975C17.3033 15.3976 18.5592 15.1398 19.8283 15.1398C21.0974 15.1398 22.3533 15.3976 23.5196 15.8975C23.63 15.9451 23.757 15.9338 23.8574 15.8677C23.9579 15.8017 24.0184 15.6895 24.0185 15.5692V5.51537C24.0187 5.37273 23.9341 5.2438 23.8031 5.18717C22.5473 4.64879 21.1952 4.37122 19.8291 4.37122C18.4629 4.37122 17.1107 4.64879 15.8551 5.18717C15.7241 5.2438 15.6395 5.37289 15.6397 5.51537V15.5692C15.6397 15.664 15.6774 15.7549 15.7443 15.822C15.8114 15.8889 15.9023 15.9265 15.9972 15.9263L15.9958 15.9263ZM19.83 14.4249C18.6443 14.4243 17.4677 14.6332 16.3547 15.0419V5.75538C18.5854 4.86541 21.0728 4.86541 23.3034 5.75538V15.0419C22.1903 14.6332 21.014 14.4243 19.8283 14.4249H19.83Z"/>
<path d="M18.046 8.152C17.8792 8.15246 17.7342 8.03737 17.6969 7.87473C17.6595 7.7121 17.7397 7.5453 17.89 7.473C19.2717 6.80258 20.5827 6.80613 21.7864 7.48284C21.8707 7.52839 21.9335 7.60594 21.9602 7.6981C21.9869 7.79011 21.9755 7.8892 21.9284 7.97275C21.8815 8.0563 21.8028 8.11754 21.7104 8.14277C21.6177 8.16785 21.5189 8.15462 21.4362 8.10631C20.435 7.54315 19.3768 7.54623 18.2019 8.11616C18.1533 8.13985 18.1 8.152 18.046 8.152Z"/>
<path d="M18.046 10.487C17.8792 10.4874 17.7342 10.3724 17.6969 10.2097C17.6595 10.0471 17.7397 9.88029 17.89 9.80798C19.2717 9.13757 20.5827 9.14112 21.7864 9.81783C21.8707 9.86337 21.9335 9.94092 21.9602 10.0331C21.9869 10.1251 21.9755 10.2242 21.9284 10.3077C21.8815 10.3913 21.8028 10.4525 21.7104 10.4778C21.6177 10.5028 21.5189 10.4896 21.4362 10.4413C20.4345 9.87814 19.3764 9.88121 18.2019 10.4511C18.1533 10.4748 18.1 10.487 18.046 10.487Z"/>
<path d="M10.5069 8.152C10.3401 8.15246 10.195 8.03737 10.1577 7.87473C10.1204 7.7121 10.2005 7.5453 10.3508 7.473C11.7326 6.80258 13.0435 6.80613 14.2477 7.48284C14.3321 7.52839 14.3948 7.60594 14.4214 7.6981C14.4482 7.79011 14.4368 7.8892 14.3897 7.97275C14.3428 8.0563 14.2641 8.11754 14.1717 8.14277C14.079 8.16785 13.9802 8.15462 13.8975 8.10631C12.8958 7.54315 11.8377 7.54623 10.6629 8.11616C10.6143 8.13985 10.5609 8.152 10.5069 8.152Z"/>
<path d="M10.5069 12.8212C10.3401 12.8217 10.195 12.7066 10.1577 12.544C10.1204 12.3815 10.2005 12.2145 10.3508 12.1422C11.7326 11.4723 13.0435 11.4754 14.2477 12.1521C14.4206 12.2487 14.4823 12.4675 14.3855 12.6403C14.2889 12.8131 14.0703 12.8749 13.8975 12.7782C12.8958 12.215 11.8376 12.2181 10.6629 12.788C10.614 12.8106 10.5607 12.822 10.5069 12.8212Z"/>
<path d="M18.046 12.8212C17.8792 12.8217 17.7342 12.7066 17.6969 12.544C17.6595 12.3815 17.7397 12.2145 17.89 12.1422C19.2717 11.4723 20.5827 11.4754 21.7868 12.1521C21.9598 12.2487 22.0215 12.4675 21.9247 12.6403C21.8281 12.8131 21.6094 12.8749 21.4366 12.7782C20.4349 12.215 19.3768 12.2181 18.2021 12.788C18.1531 12.8106 18.0999 12.822 18.046 12.8212Z"/>
<path d="M10.5069 10.487C10.3401 10.4874 10.195 10.3724 10.1577 10.2097C10.1204 10.0471 10.2005 9.88029 10.3508 9.80798C11.7326 9.13757 13.0435 9.14112 14.2477 9.81783C14.4161 9.91631 14.4745 10.1316 14.3789 10.3017C14.2834 10.4718 14.0692 10.5339 13.8975 10.4413C12.8958 9.87814 11.8376 9.88121 10.6629 10.4511C10.6143 10.4748 10.5609 10.487 10.5069 10.487Z"/>
</mask>
<path d="M15.9958 15.9263C15.9472 15.9265 15.8991 15.9166 15.8544 15.8975C14.6881 15.3976 13.4322 15.1398 12.1631 15.1398C10.894 15.1398 9.63817 15.3976 8.47188 15.8975C8.36141 15.9451 8.23447 15.9338 8.134 15.8677C8.03352 15.8017 7.97305 15.6895 7.9729 15.5692V5.51537C7.97275 5.37273 8.05737 5.2438 8.18831 5.18717C9.44418 4.64879 10.7962 4.37122 12.1623 4.37122C13.5285 4.37122 14.8807 4.64879 16.1364 5.18717C16.2673 5.2438 16.3519 5.37289 16.3518 5.51537V15.5692C16.3518 15.664 16.3141 15.7549 16.2471 15.822C16.1801 15.8889 16.0891 15.9265 15.9942 15.9263L15.9958 15.9263ZM12.1614 14.4249C13.3471 14.4243 14.5237 14.6332 15.6368 15.0419V5.75538C13.406 4.86541 10.9187 4.86541 8.68805 5.75538V15.0419C9.80112 14.6332 10.9774 14.4243 12.1631 14.4249H12.1614Z" fill="currentColor"/>
<path d="M15.9958 15.9263C16.0444 15.9265 16.0923 15.9166 16.1371 15.8975C17.3033 15.3976 18.5592 15.1398 19.8283 15.1398C21.0974 15.1398 22.3533 15.3976 23.5196 15.8975C23.63 15.9451 23.757 15.9338 23.8574 15.8677C23.9579 15.8017 24.0184 15.6895 24.0185 15.5692V5.51537C24.0187 5.37273 23.9341 5.2438 23.8031 5.18717C22.5473 4.64879 21.1952 4.37122 19.8291 4.37122C18.4629 4.37122 17.1107 4.64879 15.8551 5.18717C15.7241 5.2438 15.6395 5.37289 15.6397 5.51537V15.5692C15.6397 15.664 15.6774 15.7549 15.7443 15.822C15.8114 15.8889 15.9023 15.9265 15.9972 15.9263L15.9958 15.9263ZM19.83 14.4249C18.6443 14.4243 17.4677 14.6332 16.3547 15.0419V5.75538C18.5854 4.86541 21.0728 4.86541 23.3034 5.75538V15.0419C22.1903 14.6332 21.014 14.4243 19.8283 14.4249H19.83Z" fill="currentColor"/>
<path d="M18.046 8.152C17.8792 8.15246 17.7342 8.03737 17.6969 7.87473C17.6595 7.7121 17.7397 7.5453 17.89 7.473C19.2717 6.80258 20.5827 6.80613 21.7864 7.48284C21.8707 7.52839 21.9335 7.60594 21.9602 7.6981C21.9869 7.79011 21.9755 7.8892 21.9284 7.97275C21.8815 8.0563 21.8028 8.11754 21.7104 8.14277C21.6177 8.16785 21.5189 8.15462 21.4362 8.10631C20.435 7.54315 19.3768 7.54623 18.2019 8.11616C18.1533 8.13985 18.1 8.152 18.046 8.152Z" fill="currentColor"/>
<path d="M18.046 10.487C17.8792 10.4874 17.7342 10.3724 17.6969 10.2097C17.6595 10.0471 17.7397 9.88029 17.89 9.80798C19.2717 9.13757 20.5827 9.14112 21.7864 9.81783C21.8707 9.86337 21.9335 9.94092 21.9602 10.0331C21.9869 10.1251 21.9755 10.2242 21.9284 10.3077C21.8815 10.3913 21.8028 10.4525 21.7104 10.4778C21.6177 10.5028 21.5189 10.4896 21.4362 10.4413C20.4345 9.87814 19.3764 9.88121 18.2019 10.4511C18.1533 10.4748 18.1 10.487 18.046 10.487Z" fill="currentColor"/>
<path d="M10.5069 8.152C10.3401 8.15246 10.195 8.03737 10.1577 7.87473C10.1204 7.7121 10.2005 7.5453 10.3508 7.473C11.7326 6.80258 13.0435 6.80613 14.2477 7.48284C14.3321 7.52839 14.3948 7.60594 14.4214 7.6981C14.4482 7.79011 14.4368 7.8892 14.3897 7.97275C14.3428 8.0563 14.2641 8.11754 14.1717 8.14277C14.079 8.16785 13.9802 8.15462 13.8975 8.10631C12.8958 7.54315 11.8377 7.54623 10.6629 8.11616C10.6143 8.13985 10.5609 8.152 10.5069 8.152Z" fill="currentColor"/>
<path d="M10.5069 12.8212C10.3401 12.8217 10.195 12.7066 10.1577 12.544C10.1204 12.3815 10.2005 12.2145 10.3508 12.1422C11.7326 11.4723 13.0435 11.4754 14.2477 12.1521C14.4206 12.2487 14.4823 12.4675 14.3855 12.6403C14.2889 12.8131 14.0703 12.8749 13.8975 12.7782C12.8958 12.215 11.8376 12.2181 10.6629 12.788C10.614 12.8106 10.5607 12.822 10.5069 12.8212Z" fill="currentColor"/>
<path d="M18.046 12.8212C17.8792 12.8217 17.7342 12.7066 17.6969 12.544C17.6595 12.3815 17.7397 12.2145 17.89 12.1422C19.2717 11.4723 20.5827 11.4754 21.7868 12.1521C21.9598 12.2487 22.0215 12.4675 21.9247 12.6403C21.8281 12.8131 21.6094 12.8749 21.4366 12.7782C20.4349 12.215 19.3768 12.2181 18.2021 12.788C18.1531 12.8106 18.0999 12.822 18.046 12.8212Z" fill="currentColor"/>
<path d="M10.5069 10.487C10.3401 10.4874 10.195 10.3724 10.1577 10.2097C10.1204 10.0471 10.2005 9.88029 10.3508 9.80798C11.7326 9.13757 13.0435 9.14112 14.2477 9.81783C14.4161 9.91631 14.4745 10.1316 14.3789 10.3017C14.2834 10.4718 14.0692 10.5339 13.8975 10.4413C12.8958 9.87814 11.8376 9.88121 10.6629 10.4511C10.6143 10.4748 10.5609 10.487 10.5069 10.487Z" fill="currentColor"/>
<path d="M15.9958 15.9263L15.9966 14.593L15.995 14.593L15.9958 15.9263ZM15.8544 15.8975L15.3291 17.123L15.3317 17.1241L15.8544 15.8975ZM8.47188 15.8975L7.94661 14.672L7.94482 14.6728L8.47188 15.8975ZM8.134 15.8677L8.86729 14.7541L8.8661 14.7533L8.134 15.8677ZM7.9729 15.5692H6.63957L6.63957 15.5709L7.9729 15.5692ZM7.9729 5.51537H9.30623L9.30623 5.51393L7.9729 5.51537ZM8.18831 5.18717L7.66296 3.96169L7.65911 3.96336L8.18831 5.18717ZM16.1364 5.18717L16.6656 3.96336L16.6618 3.96173L16.1364 5.18717ZM16.3518 5.51537L15.0184 5.51393V5.51537H16.3518ZM16.2471 15.822L17.1889 16.7659L17.1911 16.7637L16.2471 15.822ZM15.9942 15.9263L15.9934 14.593L15.992 17.2596L15.9942 15.9263ZM12.1614 14.4249L12.1607 13.0916L12.1614 15.7582V14.4249ZM15.6368 15.0419L15.1772 16.2935L16.9701 16.9518V15.0419H15.6368ZM15.6368 5.75538H16.9701V4.8518L16.1308 4.51697L15.6368 5.75538ZM8.68805 5.75538L8.19395 4.51698L7.35471 4.85181V5.75538H8.68805ZM8.68805 15.0419H7.35471V16.9518L9.14759 16.2935L8.68805 15.0419ZM12.1631 14.4249V15.7582L12.1638 13.0916L12.1631 14.4249ZM16.1371 15.8975L16.6598 17.1241L16.6623 17.123L16.1371 15.8975ZM23.5196 15.8975L24.0466 14.6728L24.0448 14.672L23.5196 15.8975ZM23.8574 15.8677L23.1253 14.7533L23.1241 14.7541L23.8574 15.8677ZM24.0185 15.5692L25.3519 15.5709V15.5692H24.0185ZM24.0185 5.51537L22.6852 5.51393V5.51537H24.0185ZM23.8031 5.18717L24.3323 3.96335L24.3285 3.9617L23.8031 5.18717ZM15.8551 5.18717L15.3296 3.96172L15.3259 3.96336L15.8551 5.18717ZM15.6397 5.51537H16.973L16.973 5.51393L15.6397 5.51537ZM15.7443 15.822L14.8004 16.7637L14.8026 16.7659L15.7443 15.822ZM15.9972 15.9263L15.9994 17.2596L15.9981 14.593L15.9972 15.9263ZM19.83 14.4249V15.7582L19.8307 13.0916L19.83 14.4249ZM16.3547 15.0419H15.0213V16.9518L16.8142 16.2935L16.3547 15.0419ZM16.3547 5.75538L15.8606 4.51697L15.0213 4.8518V5.75538H16.3547ZM23.3034 5.75538H24.6367V4.85181L23.7975 4.51698L23.3034 5.75538ZM23.3034 15.0419L22.8438 16.2935L24.6367 16.9518V15.0419H23.3034ZM19.8283 14.4249L19.8276 13.0916L19.8283 15.7582V14.4249ZM18.046 8.152V6.81866L18.0423 6.81867L18.046 8.152ZM17.6969 7.87473L18.9966 7.57717L18.9964 7.576L17.6969 7.87473ZM17.89 7.473L18.468 8.67456L18.4721 8.67258L17.89 7.473ZM21.7864 7.48284L21.133 8.6451L21.1428 8.65063L21.1527 8.65599L21.7864 7.48284ZM21.9602 7.6981L23.241 7.32756L23.2406 7.32615L21.9602 7.6981ZM21.9284 7.97275L20.7668 7.31816L20.7659 7.31979L21.9284 7.97275ZM21.7104 8.14277L22.0588 9.42977L22.0613 9.42908L21.7104 8.14277ZM21.4362 8.10631L22.1083 6.95477L22.0991 6.94941L22.0898 6.9442L21.4362 8.10631ZM18.2019 8.11616L17.62 6.91651L17.6178 6.91757L18.2019 8.11616ZM18.046 10.487V9.15365L18.0423 9.15366L18.046 10.487ZM17.6969 10.2097L18.9966 9.91216L18.9964 9.91098L17.6969 10.2097ZM17.89 9.80798L18.468 11.0096L18.4721 11.0076L17.89 9.80798ZM21.7864 9.81783L21.133 10.9801L21.1428 10.9856L21.1527 10.991L21.7864 9.81783ZM21.9602 10.0331L23.241 9.66255L23.2406 9.66114L21.9602 10.0331ZM21.9284 10.3077L20.7668 9.65315L20.7659 9.65477L21.9284 10.3077ZM21.7104 10.4778L22.0588 11.7648L22.0613 11.7641L21.7104 10.4778ZM21.4362 10.4413L22.1083 9.28975L22.099 9.28433L22.0896 9.27905L21.4362 10.4413ZM18.2019 10.4511L17.6198 9.25159L17.6178 9.25256L18.2019 10.4511ZM10.5069 8.152V6.81866L10.5032 6.81867L10.5069 8.152ZM10.1577 7.87473L11.4575 7.57717L11.4572 7.576L10.1577 7.87473ZM10.3508 7.473L10.9288 8.67456L10.9329 8.67258L10.3508 7.473ZM14.2477 7.48284L13.5944 8.64521L13.6046 8.65093L13.6149 8.65647L14.2477 7.48284ZM14.4214 7.6981L13.1404 8.06808L13.1411 8.07062L14.4214 7.6981ZM14.3897 7.97275L13.2281 7.31816L13.2272 7.31979L14.3897 7.97275ZM14.1717 8.14277L14.5201 9.42977L14.5226 9.42908L14.1717 8.14277ZM13.8975 8.10631L14.5696 6.95477L14.5603 6.94934L14.5509 6.94406L13.8975 8.10631ZM10.6629 8.11616L10.0809 6.91654L10.0788 6.91757L10.6629 8.11616ZM10.5069 12.8212L10.5259 11.488L10.5145 11.4879L10.5032 11.4879L10.5069 12.8212ZM10.1577 12.544L11.4575 12.2464L11.4571 12.245L10.1577 12.544ZM10.3508 12.1422L10.9288 13.3438L10.9326 13.342L10.3508 12.1422ZM14.2477 12.1521L13.5944 13.3144L13.5973 13.316L14.2477 12.1521ZM14.3855 12.6403L13.2222 11.9888L13.2218 11.9895L14.3855 12.6403ZM13.8975 12.7782L13.244 13.9404L13.2459 13.9415L13.8975 12.7782ZM10.6629 12.788L11.2224 13.9983L11.2337 13.9931L11.2449 13.9876L10.6629 12.788ZM18.046 12.8212L18.0651 11.488L18.0537 11.4879L18.0423 11.4879L18.046 12.8212ZM17.6969 12.544L18.9966 12.2464L18.9963 12.245L17.6969 12.544ZM17.89 12.1422L18.468 13.3438L18.4717 13.342L17.89 12.1422ZM21.7868 12.1521L21.1336 13.3144L21.1365 13.316L21.7868 12.1521ZM21.9247 12.6403L20.7614 11.9888L20.761 11.9895L21.9247 12.6403ZM21.4366 12.7782L20.7832 13.9404L20.7851 13.9415L21.4366 12.7782ZM18.2021 12.788L18.7615 13.9983L18.7728 13.9931L18.784 13.9876L18.2021 12.788ZM10.5069 10.487V9.15365L10.5032 9.15366L10.5069 10.487ZM10.1577 10.2097L11.4575 9.91216L11.4572 9.91098L10.1577 10.2097ZM10.3508 9.80798L10.9288 11.0096L10.9329 11.0076L10.3508 9.80798ZM14.2477 9.81783L14.9205 8.6667L14.9107 8.661L14.9009 8.65547L14.2477 9.81783ZM14.3789 10.3017L15.5413 10.955L15.5415 10.9545L14.3789 10.3017ZM13.8975 10.4413L13.244 11.6035L13.2542 11.6093L13.2645 11.6148L13.8975 10.4413ZM10.6629 10.4511L10.0809 9.25152L10.0788 9.25256L10.6629 10.4511ZM15.9916 14.593C16.1264 14.5926 16.2575 14.62 16.3771 14.6709L15.3317 17.1241C15.5408 17.2133 15.7679 17.2604 16 17.2596L15.9916 14.593ZM16.3797 14.672C15.0474 14.101 13.6129 13.8064 12.1631 13.8064V16.4731C13.2516 16.4731 14.3288 16.6943 15.3291 17.123L16.3797 14.672ZM12.1631 13.8064C10.7134 13.8064 9.27884 14.101 7.94661 14.672L8.99716 17.123C9.99751 16.6943 11.0747 16.4731 12.1631 16.4731V13.8064ZM7.94482 14.6728C8.24675 14.5429 8.5934 14.5738 8.86729 14.7541L7.40071 16.9813C7.87554 17.2939 8.47607 17.3473 8.99895 17.1223L7.94482 14.6728ZM8.8661 14.7533C9.14146 14.9342 9.30582 15.2407 9.30623 15.5675L6.63957 15.5709C6.64029 16.1383 6.92558 16.6691 7.40189 16.982L8.8661 14.7533ZM9.30623 15.5692V5.51537H6.63957V15.5692H9.30623ZM9.30623 5.51393C9.30665 5.9037 9.0751 6.25636 8.71752 6.41099L7.65911 3.96336C7.03965 4.23123 6.63884 4.84177 6.63957 5.51681L9.30623 5.51393ZM8.71367 6.41265C9.80354 5.94543 10.9768 5.70455 12.1623 5.70455V3.03788C10.6156 3.03788 9.08482 3.35216 7.66296 3.9617L8.71367 6.41265ZM12.1623 5.70455C13.3479 5.70455 14.5213 5.94544 15.6109 6.41261L16.6618 3.96173C15.24 3.35214 13.7091 3.03788 12.1623 3.03788V5.70455ZM15.6071 6.41098C15.2493 6.25623 15.018 5.90353 15.0184 5.51393L17.6851 5.5168C17.6858 4.84224 17.2853 4.23136 16.6656 3.96336L15.6071 6.41098ZM15.0184 5.51537V15.5692H17.6851V5.51537H15.0184ZM15.0184 15.5692C15.0184 15.31 15.1214 15.0625 15.3032 14.8803L17.1911 16.7637C17.5068 16.4472 17.6851 16.0179 17.6851 15.5692H15.0184ZM15.3054 14.8781C15.4889 14.695 15.7376 14.5926 15.9963 14.593L15.992 17.2596C16.4407 17.2604 16.8712 17.0828 17.1889 16.7659L15.3054 14.8781ZM15.995 17.2596L15.9966 17.2596L15.995 14.593L15.9934 14.593L15.995 17.2596ZM12.1621 15.7582C13.1907 15.7577 14.2115 15.939 15.1772 16.2935L16.0963 13.7903C14.836 13.3275 13.5035 13.0909 12.1607 13.0916L12.1621 15.7582ZM16.9701 15.0419V5.75538H14.3034V15.0419H16.9701ZM16.1308 4.51697C13.5829 3.50044 10.7418 3.50043 8.19395 4.51698L9.18214 6.99379C11.0955 6.23039 13.2292 6.23038 15.1427 6.9938L16.1308 4.51697ZM7.35471 5.75538V15.0419H10.0214V5.75538H7.35471ZM9.14759 16.2935C10.1134 15.9389 11.1339 15.7577 12.1624 15.7582L12.1638 13.0916C10.821 13.0908 9.48887 13.3275 8.22851 13.7902L9.14759 16.2935ZM12.1631 13.0916H12.1614V15.7582H12.1631V13.0916ZM15.9916 17.2596C16.2241 17.2604 16.451 17.2131 16.6598 17.1241L15.6144 14.6709C15.7336 14.6201 15.8647 14.5926 16 14.593L15.9916 17.2596ZM16.6623 17.123C17.6627 16.6943 18.7398 16.4731 19.8283 16.4731V13.8064C18.3786 13.8064 16.944 14.101 15.6118 14.672L16.6623 17.123ZM19.8283 16.4731C20.9168 16.4731 21.9939 16.6943 22.9943 17.123L24.0448 14.672C22.7126 14.101 21.278 13.8064 19.8283 13.8064V16.4731ZM22.9925 17.1223C23.5154 17.3473 24.1159 17.2939 24.5907 16.9813L23.1241 14.7541C23.398 14.5738 23.7447 14.5429 24.0466 14.6728L22.9925 17.1223ZM24.5895 16.982C25.0659 16.6691 25.3511 16.1383 25.3519 15.5709L22.6852 15.5675C22.6856 15.2407 22.85 14.9342 23.1253 14.7533L24.5895 16.982ZM25.3519 15.5692V5.51537H22.6852V15.5692H25.3519ZM25.3519 5.51681C25.3526 4.84177 24.9518 4.23123 24.3323 3.96336L23.2739 6.41099C22.9163 6.25636 22.6848 5.90369 22.6852 5.51393L25.3519 5.51681ZM24.3285 3.9617C22.9066 3.35216 21.3759 3.03788 19.8291 3.03788V5.70455C21.0146 5.70455 22.1879 5.94543 23.2778 6.41265L24.3285 3.9617ZM19.8291 3.03788C18.2824 3.03788 16.7514 3.35214 15.3296 3.96173L16.3805 6.41261C17.4701 5.94544 18.6435 5.70455 19.8291 5.70455V3.03788ZM15.3259 3.96336C14.7061 4.23136 14.3056 4.84224 14.3063 5.5168L16.973 5.51393C16.9734 5.90354 16.7421 6.25623 16.3843 6.41098L15.3259 3.96336ZM14.3063 5.51537V15.5692H16.973V5.51537H14.3063ZM14.3063 15.5692C14.3063 16.0179 14.4847 16.4472 14.8004 16.7637L16.6882 14.8803C16.87 15.0625 16.973 15.31 16.973 15.5692H14.3063ZM14.8026 16.7659C15.1202 17.0828 15.5507 17.2604 15.9994 17.2596L15.9951 14.593C16.2539 14.5926 16.5025 14.695 16.686 14.8781L14.8026 16.7659ZM15.9981 14.593L15.9966 14.593L15.9949 17.2596L15.9964 17.2596L15.9981 14.593ZM19.8307 13.0916C18.4879 13.0909 17.1555 13.3275 15.8951 13.7903L16.8142 16.2935C17.7799 15.939 18.8007 15.7577 19.8293 15.7582L19.8307 13.0916ZM17.688 15.0419V5.75538H15.0213V15.0419H17.688ZM16.8487 6.9938C18.7623 6.23038 20.8959 6.23039 22.8093 6.99379L23.7975 4.51698C21.2496 3.50043 18.4086 3.50044 15.8606 4.51697L16.8487 6.9938ZM21.9701 5.75538V15.0419H24.6367V5.75538H21.9701ZM23.7629 13.7902C22.5026 13.3275 21.1705 13.0908 19.8276 13.0916L19.829 15.7582C20.8576 15.7577 21.8781 15.9389 22.8438 16.2935L23.7629 13.7902ZM19.8283 15.7582H19.83V13.0916H19.8283V15.7582ZM18.0423 6.81867C18.4976 6.81741 18.8946 7.13136 18.9966 7.57717L16.3972 8.1723C16.5737 8.94338 17.2609 9.48751 18.0497 9.48533L18.0423 6.81867ZM18.9964 7.576C19.0985 8.02017 18.8796 8.47658 18.468 8.67456L17.3121 6.27144C16.5998 6.61402 16.2206 7.40402 16.3975 8.17347L18.9964 7.576ZM18.4721 8.67258C19.5119 8.16804 20.3571 8.20893 21.133 8.6451L22.4398 6.32059C20.8082 5.40333 19.0316 5.43712 17.308 6.27341L18.4721 8.67258ZM21.1527 8.65599C20.9239 8.53237 20.753 8.32186 20.6798 8.07005L23.2406 7.32615C23.1139 6.89001 22.8175 6.5244 22.42 6.3097L21.1527 8.65599ZM20.6794 8.06864C20.6069 7.81793 20.6376 7.5475 20.7668 7.31816L23.09 8.62735C23.3134 8.23091 23.3668 7.76229 23.241 7.32756L20.6794 8.06864ZM20.7659 7.31979C20.8943 7.09118 21.1085 6.92492 21.3594 6.85647L22.0613 9.42908C22.4972 9.31016 22.8686 9.02142 23.0909 8.62572L20.7659 7.31979ZM21.3619 6.85578C21.6148 6.78729 21.8836 6.82362 22.1083 6.95477L20.7641 9.25785C21.1543 9.48562 21.6206 9.54841 22.0588 9.42977L21.3619 6.85578ZM22.0898 6.9442C20.6513 6.13506 19.1259 6.18603 17.62 6.91651L18.7838 9.3158C19.6278 8.90642 20.2186 8.95125 20.7825 9.26842L22.0898 6.9442ZM17.6178 6.91757C17.753 6.85168 17.8998 6.81867 18.046 6.81867V9.48533C18.3003 9.48533 18.5536 9.42802 18.786 9.31474L17.6178 6.91757ZM18.0423 9.15366C18.4976 9.1524 18.8946 9.46635 18.9966 9.91216L16.3972 10.5073C16.5737 11.2784 17.2609 11.8225 18.0497 11.8203L18.0423 9.15366ZM18.9964 9.91098C19.0985 10.3552 18.8796 10.8116 18.468 11.0095L17.3121 8.60642C16.5998 8.94901 16.2206 9.73901 16.3975 10.5085L18.9964 9.91098ZM18.4721 11.0076C19.5119 10.503 20.3571 10.5439 21.133 10.9801L22.4398 8.65558C20.8082 7.73831 19.0316 7.77211 17.308 8.6084L18.4721 11.0076ZM21.1527 10.991C20.9239 10.8674 20.753 10.6568 20.6798 10.405L23.2406 9.66114C23.1139 9.225 22.8175 8.85938 22.42 8.64469L21.1527 10.991ZM20.6794 10.4036C20.6069 10.1529 20.6376 9.88248 20.7668 9.65315L23.09 10.9623C23.3134 10.5659 23.3668 10.0973 23.241 9.66255L20.6794 10.4036ZM20.7659 9.65477C20.8943 9.42617 21.1085 9.25991 21.3594 9.19146L22.0613 11.7641C22.4972 11.6451 22.8686 11.3564 23.0909 10.9607L20.7659 9.65477ZM21.3619 9.19077C21.6148 9.12228 21.8836 9.15861 22.1083 9.28975L20.7641 11.5928C21.1543 11.8206 21.6206 11.8834 22.0588 11.7648L21.3619 9.19077ZM22.0896 9.27905C20.6509 8.47018 19.1255 8.5209 17.6198 9.25159L18.784 11.6507C19.6272 11.2415 20.2181 11.2861 20.7827 11.6035L22.0896 9.27905ZM17.6178 9.25256C17.753 9.18667 17.8998 9.15365 18.046 9.15365V11.8203C18.3003 11.8203 18.5536 11.763 18.786 11.6497L17.6178 9.25256ZM10.5032 6.81867C10.9584 6.81741 11.3554 7.13136 11.4575 7.57717L8.85804 8.1723C9.03458 8.94338 9.72172 9.48751 10.5106 9.48533L10.5032 6.81867ZM11.4572 7.576C11.5593 8.02017 11.3404 8.47658 10.9288 8.67456L9.77289 6.27144C9.06065 6.61403 8.68142 7.40403 8.85831 8.17347L11.4572 7.576ZM10.9329 8.67258C11.9726 8.16809 12.818 8.20885 13.5944 8.64521L14.9009 6.32048C13.269 5.40341 11.4925 5.43708 9.7688 6.27341L10.9329 8.67258ZM13.6149 8.65647C13.3847 8.53237 13.2133 8.32062 13.1404 8.06808L15.7024 7.32812C15.5762 6.89126 15.2795 6.5244 14.8804 6.30922L13.6149 8.65647ZM13.1411 8.07062C13.0678 7.81867 13.0989 7.54748 13.2281 7.31816L15.5513 8.62735C15.7747 8.23092 15.8285 7.76155 15.7016 7.32558L13.1411 8.07062ZM13.2272 7.31979C13.3556 7.09118 13.5698 6.92493 13.8207 6.85647L14.5226 9.42908C14.9585 9.31016 15.3299 9.02142 15.5522 8.62572L13.2272 7.31979ZM13.8232 6.85578C14.0761 6.78729 14.3449 6.82362 14.5696 6.95477L13.2254 9.25785C13.6156 9.48562 14.0819 9.54841 14.5201 9.42977L13.8232 6.85578ZM14.5509 6.94406C13.1121 6.13517 11.5868 6.18596 10.0809 6.91654L11.2449 9.31577C12.0885 8.90649 12.6795 8.95114 13.244 9.26855L14.5509 6.94406ZM10.0788 6.91757C10.2146 6.85142 10.3612 6.81867 10.5069 6.81867V9.48533C10.7606 9.48533 11.014 9.42829 11.247 9.31474L10.0788 6.91757ZM10.5032 11.4879C10.9584 11.4866 11.3554 11.8006 11.4575 12.2464L8.85804 12.8415C9.03457 13.6126 9.72171 14.1567 10.5106 14.1546L10.5032 11.4879ZM11.4571 12.245C11.5594 12.6893 11.3405 13.1458 10.9288 13.3438L9.77289 10.9407C9.06056 11.2833 8.68133 12.0736 8.85837 12.843L11.4571 12.245ZM10.9326 13.342C11.9728 12.8376 12.8182 12.8782 13.5944 13.3144L14.9009 10.9897C13.2687 10.0725 11.4923 10.107 9.76913 10.9425L10.9326 13.342ZM13.5973 13.316C13.1264 13.0529 12.9593 12.4583 13.2222 11.9888L15.5488 13.2918C16.0054 12.4767 15.7149 11.4445 14.898 10.9881L13.5973 13.316ZM13.2218 11.9895C13.4845 11.5198 14.0785 11.3514 14.549 11.6148L13.2459 13.9415C14.062 14.3985 15.0933 14.1064 15.5493 13.2911L13.2218 11.9895ZM14.5509 11.6159C13.1121 10.807 11.5868 10.8578 10.0809 11.5884L11.2449 13.9876C12.0885 13.5783 12.6794 13.623 13.244 13.9404L14.5509 11.6159ZM10.1034 11.5777C10.2348 11.517 10.3792 11.4859 10.5259 11.488L10.4878 14.1544C10.7422 14.1581 10.9931 14.1043 11.2224 13.9983L10.1034 11.5777ZM18.0423 11.4879C18.4976 11.4866 18.8946 11.8006 18.9966 12.2464L16.3972 12.8415C16.5737 13.6126 17.2609 14.1567 18.0497 14.1546L18.0423 11.4879ZM18.9963 12.245C19.0986 12.6894 18.8796 13.1458 18.468 13.3438L17.3121 10.9407C16.5997 11.2833 16.2205 12.0736 16.3975 12.843L18.9963 12.245ZM18.4717 13.342C19.512 12.8376 20.3574 12.8782 21.1336 13.3144L22.44 10.9897C20.8079 10.0725 19.0315 10.107 17.3083 10.9425L18.4717 13.342ZM21.1365 13.316C20.6655 13.0529 20.4984 12.4583 20.7614 11.9888L23.088 13.2918C23.5445 12.4767 23.254 11.4445 22.4372 10.9881L21.1365 13.316ZM20.761 11.9895C21.0236 11.5198 21.6177 11.3514 22.0881 11.6148L20.7851 13.9415C21.6012 14.3985 22.6325 14.1064 23.0884 13.2911L20.761 11.9895ZM22.09 11.6159C20.6513 10.807 19.126 10.8578 17.6201 11.5884L18.784 13.9876C19.6277 13.5783 20.2186 13.623 20.7832 13.9404L22.09 11.6159ZM17.6426 11.5777C17.774 11.517 17.9184 11.4859 18.0651 11.488L18.027 14.1544C18.2814 14.1581 18.5323 14.1043 18.7615 13.9983L17.6426 11.5777ZM10.5032 9.15366C10.9584 9.1524 11.3554 9.46635 11.4575 9.91216L8.85804 10.5073C9.03458 11.2784 9.72172 11.8225 10.5106 11.8203L10.5032 9.15366ZM11.4572 9.91098C11.5593 10.3552 11.3404 10.8116 10.9288 11.0095L9.77289 8.60642C9.06065 8.94901 8.68142 9.73901 8.85831 10.5085L11.4572 9.91098ZM10.9329 11.0076C11.9726 10.5031 12.818 10.5438 13.5944 10.9802L14.9009 8.65547C13.269 7.73839 11.4925 7.77207 9.7688 8.6084L10.9329 11.0076ZM13.5749 10.969C13.1146 10.6999 12.9562 10.1122 13.2163 9.64893L15.5415 10.9545C15.9928 10.1509 15.7177 9.13267 14.9205 8.6667L13.5749 10.969ZM13.2166 9.6485C13.4772 9.18479 14.0616 9.01492 14.5304 9.26778L13.2645 11.6148C14.0767 12.0529 15.0896 11.7587 15.5413 10.955L13.2166 9.6485ZM14.5509 9.27905C13.1121 8.47015 11.5868 8.52094 10.0809 9.25153L11.2449 11.6508C12.0885 11.2415 12.6794 11.2861 13.244 11.6035L14.5509 9.27905ZM10.0788 9.25256C10.2144 9.18647 10.361 9.15365 10.5069 9.15365V11.8203C10.7607 11.8203 11.0141 11.7632 11.247 11.6497L10.0788 9.25256Z" fill="currentColor" mask="url(#path-4-inside-1_1712_10547)"/>
</g>
</g>
</svg>
