<svg width="32" height="33" viewBox="0 0 32 33" fill="none" xmlns="http://www.w3.org/2000/svg">
<g id="icon/education">
<rect id="Rectangle 77185" x="4.99902" y="7.1524" width="22" height="12" stroke="inherit"/>
<path id="Rectangle 77186" d="M12.999 19.1524V24.1524H18.999V19.1524" stroke="inherit" stroke-linejoin="round"/>
<path id="Vector 21" d="M10.999 24.1524H20.999" stroke="inherit" stroke-linecap="square" stroke-linejoin="round"/>
<g id="Vector">
<path fill-rule="evenodd" clip-rule="evenodd" d="M21.2657 13.419C22.055 13.419 22.6949 12.7792 22.6949 11.9899C22.6949 11.2006 22.055 10.5607 21.2657 10.5607C20.4764 10.5607 19.8366 11.2006 19.8366 11.9899C19.8366 12.7792 20.4764 13.419 21.2657 13.419ZM21.2657 13.8274C22.2806 13.8274 23.1032 13.0047 23.1032 11.9899C23.1032 10.9751 22.2806 10.1524 21.2657 10.1524C20.2509 10.1524 19.4283 10.9751 19.4283 11.9899C19.4283 13.0047 20.2509 13.8274 21.2657 13.8274Z" fill="inherit"/>
<path fill-rule="evenodd" clip-rule="evenodd" d="M24.124 16.4062L24.124 16.4047C24.124 15.7338 23.8324 15.0819 23.2997 14.595C22.766 14.1071 22.035 13.8274 21.2657 13.8274C20.4965 13.8274 19.7651 14.1071 19.2313 14.595C18.6987 15.0817 18.4074 15.7336 18.4074 16.4047C18.4074 16.475 18.4329 16.5483 18.4878 16.6123C18.5363 16.6689 18.606 16.7155 18.6904 16.7416L23.8412 16.744C23.9256 16.718 23.9954 16.6712 24.044 16.6144M23.8932 17.1524L18.6381 17.1499C18.4558 17.1089 18.2937 17.0132 18.1778 16.8781C18.062 16.743 17.999 16.5764 17.999 16.4047C17.999 15.6129 18.3432 14.8535 18.9558 14.2936C19.5684 13.7337 20.3995 13.419 21.2657 13.419C22.132 13.419 22.9627 13.7337 23.5752 14.2936C24.1878 14.8535 24.5323 15.6129 24.5323 16.4047C24.5329 16.5768 24.4703 16.7441 24.3544 16.8797C24.2385 17.0153 24.0761 17.1114 23.8932 17.1524ZM24.124 16.4062C24.1242 16.4767 24.0989 16.5502 24.044 16.6144L24.124 16.4062Z" fill="inherit"/>
<path d="M21.2657 13.419C22.055 13.419 22.6949 12.7792 22.6949 11.9899C22.6949 11.2006 22.055 10.5607 21.2657 10.5607C20.4764 10.5607 19.8366 11.2006 19.8366 11.9899C19.8366 12.7792 20.4764 13.419 21.2657 13.419ZM21.2657 13.419C20.3995 13.419 19.5684 13.7337 18.9558 14.2936C18.3432 14.8535 17.999 15.6129 17.999 16.4047C17.999 16.5764 18.062 16.743 18.1778 16.8781C18.2937 17.0132 18.4558 17.1089 18.6381 17.1499L23.8932 17.1524C24.0761 17.1114 24.2385 17.0153 24.3544 16.8797C24.4703 16.7441 24.5329 16.5768 24.5323 16.4047C24.5323 15.6129 24.1878 14.8535 23.5752 14.2936C22.9627 13.7337 22.132 13.419 21.2657 13.419ZM21.2657 13.8274C22.2806 13.8274 23.1032 13.0047 23.1032 11.9899C23.1032 10.9751 22.2806 10.1524 21.2657 10.1524C20.2509 10.1524 19.4283 10.9751 19.4283 11.9899C19.4283 13.0047 20.2509 13.8274 21.2657 13.8274ZM21.2657 13.8274C22.035 13.8274 22.766 14.1071 23.2997 14.595C23.8324 15.0819 24.124 15.7338 24.124 16.4047L24.124 16.4062M21.2657 13.8274C20.4965 13.8274 19.7651 14.1071 19.2313 14.595C18.6987 15.0817 18.4074 15.7336 18.4074 16.4047C18.4074 16.475 18.4329 16.5483 18.4878 16.6123C18.5363 16.6689 18.606 16.7155 18.6904 16.7416L23.8412 16.744C23.9256 16.718 23.9954 16.6712 24.044 16.6144M24.124 16.4062L24.044 16.6144M24.124 16.4062C24.1242 16.4767 24.0989 16.5502 24.044 16.6144" stroke="inherit" stroke-width="0.4"/>
</g>
<rect id="Rectangle 77187" x="7.99902" y="10.1524" width="8" height="4" stroke="inherit" stroke-linejoin="round"/>
</g>
</svg>
