<svg width="81" height="80" viewBox="0 0 81 80" fill="none" xmlns="http://www.w3.org/2000/svg">
<path opacity="0.1" d="M40.5 80C62.5914 80 80.5 62.0914 80.5 40C80.5 17.9086 62.5914 0 40.5 0C18.4086 0 0.5 17.9086 0.5 40C0.5 62.0914 18.4086 80 40.5 80Z" fill="#D93B41"/>
<path d="M55.4763 27.9899C54.5833 27.0965 53.5231 26.3878 52.3562 25.9043C51.1893 25.4207 49.9385 25.1719 48.6754 25.1719C47.4122 25.1719 46.1615 25.4207 44.9945 25.9043C43.8276 26.3878 42.7674 27.0965 41.8744 27.9899L40.0212 29.8431L38.168 27.9899C36.3642 26.1861 33.9179 25.1728 31.367 25.1728C28.8162 25.1728 26.3698 26.1861 24.5661 27.9899C22.7623 29.7936 21.749 32.24 21.749 34.7908C21.749 37.3417 22.7623 39.788 24.5661 41.5918L26.4193 43.445L40.0212 57.0469L53.6231 43.445L55.4763 41.5918C56.3697 40.6988 57.0784 39.6386 57.5619 38.4716C58.0454 37.3047 58.2943 36.0539 58.2943 34.7908C58.2943 33.5277 58.0454 32.2769 57.5619 31.11C57.0784 29.9431 56.3697 28.8828 55.4763 27.9899Z" stroke="#D93B41" stroke-width="3" stroke-linecap="round"/>
</svg>
