<svg width="32" height="33" viewBox="0 0 32 33" fill="none" xmlns="http://www.w3.org/2000/svg">
<g id="icon/fav">
<path id="Vector" d="M23.9873 9.65527C23.511 9.1788 22.9456 8.80083 22.3232 8.54295C21.7008 8.28507 21.0338 8.15234 20.3601 8.15234C19.6864 8.15234 19.0194 8.28507 18.397 8.54295C17.7746 8.80083 17.2092 9.1788 16.7329 9.65527L15.7445 10.6436L14.7562 9.65527C13.7942 8.69328 12.4894 8.15284 11.129 8.15284C9.76853 8.15284 8.4638 8.69328 7.50181 9.65527C6.53983 10.6173 5.99939 11.922 5.99939 13.2824C5.99939 14.6429 6.53983 15.9476 7.50181 16.9096L8.4902 17.898L15.7445 25.1523L22.9989 17.898L23.9873 16.9096C24.4637 16.4334 24.8417 15.8679 25.0996 15.2455C25.3575 14.6232 25.4902 13.9561 25.4902 13.2824C25.4902 12.6088 25.3575 11.9417 25.0996 11.3193C24.8417 10.697 24.4637 10.1315 23.9873 9.65527Z" stroke="inherit" stroke-linecap="round" fill="none" style="fill:var(--fill, none); stroke:var(--stroke, currentColor);"/>
</g>
</svg>
