<svg width="32" height="33" viewBox="0 0 32 33" fill="none" xmlns="http://www.w3.org/2000/svg">
<g id="icon/gaming">f
<path id="Union" fill-rule="evenodd" clip-rule="evenodd" d="M28.4252 22.4373C28.4252 22.4373 29.8074 13.8468 26.3324 9.62175L26.3234 9.6195C25.3764 8.36339 23.8767 7.5477 22.1825 7.5477C21.4157 7.5477 20.6904 7.71831 20.0355 8.01688C20.0355 8.01688 18.0772 9.10236 16.2623 9.10236C14.4601 9.10236 12.489 8.01688 12.489 8.01688C11.8341 7.71831 11.1088 7.5477 10.3421 7.5477C8.64781 7.5477 7.14803 8.36339 6.2011 9.6195L6.19212 9.62175C2.71724 13.847 4.09947 22.4373 4.09947 22.4373L4.11804 22.4424C4.26723 23.7451 5.37212 24.7573 6.71475 24.7573C7.55823 24.7573 8.30637 24.3563 8.78451 23.7365L10.7641 21.5094C12.1657 20.0337 13.5951 19.9 14.0672 19.9C14.1716 19.9 14.2292 19.9065 14.2292 19.9065H18.2955C18.2955 19.9065 18.353 19.9 18.4575 19.9C18.9296 19.9 20.359 20.0337 21.7606 21.5094L23.7402 23.7365C24.2183 24.3565 24.9665 24.7573 25.8099 24.7573C27.1526 24.7573 28.2575 23.7451 28.4066 22.4424L28.4252 22.4373ZM18.2546 18.9065L18.2779 18.905C18.3241 18.9023 18.3845 18.9 18.4575 18.9C19.1226 18.9 20.8459 19.0942 22.4857 20.8207L22.497 20.8327L22.508 20.845L24.4876 23.0722L24.5107 23.0982L24.532 23.1258C24.8303 23.5125 25.2917 23.7573 25.8099 23.7573C26.6376 23.7573 27.321 23.1331 27.4131 22.3286L27.49 21.6572L27.5201 21.6489C27.5425 21.4524 27.5671 21.2148 27.5906 20.9429C27.6634 20.0999 27.7253 18.9353 27.6825 17.6471C27.5989 15.1297 27.1208 12.3575 25.7559 10.5084L25.7377 10.5039L25.5249 10.2215C24.7572 9.20312 23.5471 8.5477 22.1825 8.5477C21.5774 8.5477 21.0034 8.67951 20.48 8.91338C20.462 8.92305 20.4382 8.93564 20.4091 8.95078C20.3435 8.9849 20.2504 9.03209 20.134 9.08796C19.9019 9.19942 19.5738 9.34704 19.1837 9.49479C18.421 9.78367 17.3461 10.1024 16.2623 10.1024C15.1844 10.1024 14.1093 9.7834 13.3463 9.49504C12.9558 9.34746 12.6268 9.20002 12.394 9.08875C12.2773 9.03297 12.1838 8.98587 12.118 8.95184C12.0881 8.93637 12.0638 8.92356 12.0456 8.91385C11.5219 8.67969 10.9475 8.5477 10.3421 8.5477C8.97748 8.5477 7.7673 9.20314 6.99962 10.2215L6.78673 10.5039L6.7686 10.5084C5.40377 12.3576 4.92571 15.1298 4.84217 17.6472C4.79941 18.9354 4.86124 20.1 4.93408 20.943C4.95757 21.2149 4.98213 21.4524 5.00453 21.6489L5.03465 21.6572L5.11155 22.3286C5.20367 23.1331 5.88713 23.7573 6.71475 23.7573C7.23291 23.7573 7.69437 23.5125 7.99275 23.1257L8.01399 23.0981L8.03709 23.0722L10.0167 20.845L10.0277 20.8327L10.039 20.8207C11.6788 19.0942 13.402 18.9 14.0672 18.9C14.1402 18.9 14.2005 18.9023 14.2467 18.905L14.2701 18.9065H18.2546ZM22.6908 12.3826C22.6908 12.9328 22.2447 13.3791 21.6943 13.3791C21.1441 13.3791 20.6978 12.9328 20.6978 12.3826C20.6978 11.8322 21.1441 11.3861 21.6943 11.3861C22.2447 11.3861 22.6908 11.8322 22.6908 12.3826ZM21.6943 17.1491C22.2447 17.1491 22.6908 16.703 22.6908 16.1526C22.6908 15.6022 22.2447 15.1561 21.6943 15.1561C21.1441 15.1561 20.6978 15.6022 20.6978 16.1526C20.6978 16.703 21.1441 17.1491 21.6943 17.1491ZM24.5758 14.2175C24.5758 14.7679 24.1297 15.2141 23.5793 15.2141C23.0289 15.2141 22.5828 14.7679 22.5828 14.2175C22.5828 13.6674 23.0289 13.221 23.5793 13.221C24.1297 13.221 24.5758 13.6674 24.5758 14.2175ZM19.8093 15.2141C20.3597 15.2141 20.8058 14.7679 20.8058 14.2175C20.8058 13.6674 20.3597 13.221 19.8093 13.221C19.2589 13.221 18.8128 13.6674 18.8128 14.2175C18.8128 14.7679 19.2589 15.2141 19.8093 15.2141ZM9.16504 11.8036H10.165V13.8036H12.165V14.8036H10.165V16.8036H9.16504V14.8036H7.16504V13.8036H9.16504V11.8036Z" stroke="currentColor" fill="currentColor"/>
</g>
</svg>
