<svg width="24" height="24" viewBox="0 0 24 24" fill="none" xmlns="http://www.w3.org/2000/svg">
<path fill-rule="evenodd" clip-rule="evenodd" d="M12.4976 17.3438C15.4488 17.3438 17.8413 14.9513 17.8413 12C17.8413 9.04873 15.4488 6.65625 12.4976 6.65625C9.54629 6.65625 7.15381 9.04873 7.15381 12C7.15381 14.9513 9.54629 17.3438 12.4976 17.3438ZM12.4976 16.3722C10.0829 16.3722 8.12539 14.4147 8.12539 12C8.12539 9.58532 10.0829 7.62784 12.4976 7.62784C14.9122 7.62784 16.8697 9.58532 16.8697 12C16.8697 14.4147 14.9122 16.3722 12.4976 16.3722ZM12.1541 10.3707C12.0629 10.2829 12.0118 10.1637 12.0118 10.0395C12.0118 9.91523 12.0629 9.79608 12.1541 9.70823C12.2452 9.62038 12.3687 9.57102 12.4976 9.57102C12.6264 9.57102 12.75 9.62038 12.8411 9.70823C12.9322 9.79608 12.9834 9.91523 12.9834 10.0395C12.9834 10.1637 12.9322 10.2829 12.8411 10.3707C12.75 10.4586 12.6264 10.5079 12.4976 10.5079C12.3687 10.5079 12.2452 10.4586 12.1541 10.3707ZM12.1737 11.1542C12.1737 11.1112 12.2101 11.0761 12.2547 11.0761H12.7405C12.785 11.0761 12.8214 11.1112 12.8214 11.1542V13.9279C12.8214 13.9708 12.785 14.006 12.7405 14.006H12.2547C12.2101 14.006 12.1737 13.9708 12.1737 13.9279V11.1542Z" fill="#E9E9E9"/>
</svg>
