<svg width="32" height="33" viewBox="0 0 32 33" fill="none" xmlns="http://www.w3.org/2000/svg">
<g id="icon/kids">
<path id="Union" fill-rule="evenodd" clip-rule="evenodd" d="M8.56647 15.7165C8.68516 15.2583 8.46624 14.7796 8.04196 14.5696C6.83486 13.9722 6 12.7155 6 11.2566C6 9.21164 7.63635 7.57312 9.63158 7.57312C11.0578 7.57312 12.2998 8.4082 12.8941 9.63631C13.1026 10.0672 13.5873 10.2899 14.0501 10.1674C14.6719 10.0029 15.3252 9.91486 16 9.91486C16.6748 9.91486 17.3281 10.0029 17.9499 10.1674C18.4127 10.2899 18.8974 10.0672 19.1059 9.63631C19.7002 8.4082 20.9422 7.57312 22.3684 7.57312C24.3637 7.57312 26 9.21164 26 11.2566C26 12.7155 25.1651 13.9722 23.958 14.5696C23.5338 14.7796 23.3148 15.2583 23.4335 15.7165C23.5969 16.3475 23.6842 17.0109 23.6842 17.6964C23.6842 22.0045 20.2334 25.4779 16 25.4779C11.7666 25.4779 8.31579 22.0045 8.31579 17.6964C8.31579 17.0109 8.40307 16.3475 8.56647 15.7165ZM5 11.2566C5 13.1058 6.05966 14.7043 7.59841 15.4658C7.41395 16.178 7.31579 16.9257 7.31579 17.6964C7.31579 22.5462 11.2038 26.4779 16 26.4779C20.7962 26.4779 24.6842 22.5462 24.6842 17.6964C24.6842 16.9257 24.586 16.178 24.4016 15.4658C25.9403 14.7043 27 13.1058 27 11.2566C27 8.66988 24.9264 6.57312 22.3684 6.57312C20.5398 6.57312 18.9587 7.6448 18.2058 9.20071C17.5014 9.01433 16.7622 8.91486 16 8.91486C15.2378 8.91486 14.4986 9.01433 13.7942 9.20071C13.0413 7.6448 11.4602 6.57312 9.63158 6.57312C7.0736 6.57312 5 8.66988 5 11.2566ZM19.5 18.5731C19.5 20.5061 17.933 22.0731 16 22.0731C14.067 22.0731 12.5 20.5061 12.5 18.5731C12.5 18.297 12.2761 18.0731 12 18.0731C11.7239 18.0731 11.5 18.297 11.5 18.5731C11.5 21.0584 13.5147 23.0731 16 23.0731C18.4853 23.0731 20.5 21.0584 20.5 18.5731C20.5 18.297 20.2761 18.0731 20 18.0731C19.7239 18.0731 19.5 18.297 19.5 18.5731Z" fill="currentColor"/>
</g>
</svg>
