<svg width="32" height="32" viewBox="0 0 32 32" fill="none" xmlns="http://www.w3.org/2000/svg">
<g id="icon/location">
<g id="Group 57">
<path id="Vector" d="M23.8323 11.0574L23.8323 11.0575C24.2751 12.1789 24.4995 13.3692 24.4995 14.5921C24.4995 16.0459 23.9589 17.5744 23.1909 19.022C22.4195 20.4759 21.3971 21.8882 20.3847 23.1197C19.3709 24.3528 18.3584 25.4149 17.6001 26.1683C17.2206 26.5453 16.904 26.8457 16.6817 27.0524C16.5705 27.1558 16.4828 27.2358 16.4226 27.2903C16.3925 27.3175 16.3692 27.3384 16.3533 27.3526L16.335 27.3689L16.3301 27.3732L16.3288 27.3744L16.3283 27.3748C16.3282 27.3749 16.3281 27.375 15.9974 27M23.8323 11.0574L9.985 8.16682C9.21153 8.99287 8.59461 9.97422 8.16687 11.0548L8.16672 11.0551C7.72389 12.1765 7.49951 13.3669 7.49951 14.5897C7.49951 16.0397 8.03997 17.5664 8.80747 19.0133C9.57835 20.4665 10.6001 21.8795 11.612 23.1122C12.6252 24.3466 13.637 25.4104 14.3949 26.1652C14.7741 26.5429 15.0905 26.844 15.3127 27.0512C15.4238 27.1548 15.5114 27.235 15.5716 27.2896C15.6017 27.3169 15.625 27.3378 15.6408 27.352L15.6591 27.3683L15.664 27.3727L15.6654 27.3739L15.6658 27.3743C15.6659 27.3744 15.666 27.3745 15.9974 27M23.8323 11.0574C23.4051 9.97655 22.7882 8.99508 22.0143 8.16944C21.2388 7.33767 20.3223 6.67486 19.3134 6.2195C18.2638 5.7418 17.1482 5.5 15.9995 5.5C14.8505 5.5 13.7351 5.74189 12.6857 6.21707L12.6856 6.21715M23.8323 11.0574L12.6856 6.21715M15.9974 27L16.3281 27.375L15.9968 27.6672L15.666 27.3745L15.9974 27ZM12.6856 6.21715C11.6707 6.67716 10.7637 7.33489 9.98507 8.16673L12.6856 6.21715Z" stroke="currentColor"/>
<circle id="Ellipse 111" cx="15.9995" cy="14" r="3.5" stroke="currentColor"/>
</g>
</g>
</svg>
