<svg xmlns="http://www.w3.org/2000/svg" width="32" height="32" viewBox="0 0 32 32" fill="none">
  <path d="M24.3571 9H7.64286C7.28728 9 7 9.28728 7 9.64286V22.5C7 22.8556 7.28728 23.1429 7.64286 23.1429H24.3571C24.7127 23.1429 25 22.8556 25 22.5V9.64286C25 9.28728 24.7127 9 24.3571 9ZM23.5536 11.2259V21.6964H8.44643V11.2259L7.89196 10.794L8.68147 9.77946L9.54129 10.4484H22.4607L23.3205 9.77946L24.11 10.794L23.5536 11.2259ZM22.4607 10.4464L16 15.4688L9.53929 10.4464L8.67946 9.77746L7.88996 10.792L8.44442 11.2239L15.3069 16.5596C15.5043 16.7129 15.7471 16.7962 15.997 16.7962C16.2469 16.7962 16.4897 16.7129 16.6871 16.5596L23.5536 11.2259L24.108 10.794L23.3185 9.77946L22.4607 10.4464Z" fill="currentColor"/>
</svg>