<svg width="32" height="33" viewBox="0 0 32 33" fill="none" xmlns="http://www.w3.org/2000/svg">
<g id="icon/music">
<path id="Rectangle 77184" d="M23.5 19.1698H22.4578C21.663 19.1698 21.0188 19.814 21.0188 20.6088V20.8347C21.0188 21.5047 20.4757 22.0478 19.8058 22.0478V22.0478C19.1358 22.0478 18.5927 21.5047 18.5927 20.8347V17.3467C18.5927 16.6871 18.058 16.1524 17.3985 16.1524V16.1524C16.7389 16.1524 16.2042 16.6871 16.2042 17.3467V22.9394C16.2042 23.6093 15.6611 24.1524 14.9912 24.1524V24.1524C14.3212 24.1524 13.7781 23.6093 13.7781 22.9394V19.4374C13.7781 18.7675 13.2351 18.2244 12.5651 18.2244V18.2244C11.8952 18.2244 11.3521 18.7675 11.3521 19.4374V20.9103C11.3521 21.1456 11.1613 21.3364 10.926 21.3364V21.3364H9.5" stroke="currentColor"/>
<g id="Group 55">
<path id="Rectangle 77176" d="M25.5 23.1524V17.6524C25.5 12.4057 21.2467 8.1524 16 8.1524V8.1524C10.7533 8.1524 6.5 12.4057 6.5 17.6524V23.1524" stroke="currentColor" stroke-linejoin="round"/>
<path id="Rectangle 77177" d="M6.49902 18.1524V17.6524H5.99902H4.99902C4.1706 17.6524 3.49902 18.324 3.49902 19.1524V21.1524C3.49902 21.9808 4.1706 22.6524 4.99902 22.6524H5.99902H6.49902V22.1524V18.1524Z" stroke="currentColor"/>
<path id="Rectangle 77179" d="M25.499 18.1524V17.6524H25.999H26.999C27.8275 17.6524 28.499 18.324 28.499 19.1524V21.1524C28.499 21.9808 27.8275 22.6524 26.999 22.6524H25.999H25.499V22.1524V18.1524Z" stroke="currentColor"/>
</g>
</g>
</svg>
