<svg xmlns="http://www.w3.org/2000/svg" width="32" height="32" viewBox="0 0 32 32" fill="none">
  <path fill-rule="evenodd" clip-rule="evenodd" d="M17.9995 25H13.9995V24H17.9995V25Z" fill="currentColor"/>
  <path fill-rule="evenodd" clip-rule="evenodd" d="M17.3967 6.66059C16.9487 6.55561 16.4812 6.5 16 6.5C12.4807 6.5 9.69398 9.47437 9.92301 12.9862L9.97922 13.8481C10.1363 16.2564 9.38591 18.6269 7.89153 20.5C7.74141 20.6882 7.58379 20.8713 7.41882 21.049L7 21.5H25L24.5812 21.049C24.4162 20.8713 24.2586 20.6882 24.1085 20.5C22.6141 18.6269 21.8637 16.2564 22.0208 13.8481L22.077 12.9862C22.1024 12.5967 22.0907 12.2137 22.045 11.8407C21.7548 12.05 21.4312 12.2159 21.0838 12.329C21.0935 12.5239 21.0921 12.7215 21.0791 12.9211L21.0229 13.783C20.8666 16.18 21.5248 18.543 22.8653 20.5H9.13467C10.4752 18.543 11.1334 16.18 10.9771 13.783L10.9209 12.9211C10.7295 9.98596 13.0586 7.5 16 7.5C16.275 7.5 16.5447 7.52173 16.8074 7.56353C16.9569 7.23185 17.1565 6.92764 17.3967 6.66059Z" fill="currentColor"//>
  <circle cx="20" cy="9" r="2.5" fill="#D93B41"/>
</svg>