<svg width="32" height="32" viewBox="0 0 32 32" fill="none" xmlns="http://www.w3.org/2000/svg">
<g id="icon/phone">
<path id="Vector" d="M18.5846 10.427C19.4214 10.5902 20.1905 10.9995 20.7934 11.6024C21.3962 12.2052 21.8055 12.9743 21.9688 13.8111M18.5846 7C20.3232 7.19314 21.9444 7.9717 23.1821 9.20783C24.4198 10.444 25.2004 12.0642 25.3957 13.8025M24.539 20.6393V23.2096C24.54 23.4482 24.4911 23.6843 24.3955 23.903C24.2999 24.1216 24.1597 24.3178 23.9839 24.4791C23.8081 24.6404 23.6005 24.7632 23.3745 24.8397C23.1484 24.9161 22.9089 24.9445 22.6713 24.923C20.035 24.6366 17.5026 23.7357 15.2776 22.2928C13.2076 20.9775 11.4525 19.2224 10.1372 17.1524C8.68924 14.9173 7.78817 12.3726 7.50695 9.72444C7.48554 9.48752 7.5137 9.24874 7.58963 9.0233C7.66556 8.79786 7.7876 8.5907 7.94798 8.41501C8.10835 8.23932 8.30356 8.09895 8.52116 8.00284C8.73876 7.90672 8.97399 7.85697 9.21187 7.85674H11.7821C12.1979 7.85265 12.601 7.99989 12.9162 8.271C13.2315 8.54212 13.4374 8.91863 13.4956 9.33034C13.6041 10.1529 13.8053 10.9605 14.0953 11.7378C14.2106 12.0444 14.2355 12.3777 14.1672 12.6981C14.0989 13.0185 13.9401 13.3126 13.7098 13.5455L12.6217 14.6336C13.8413 16.7785 15.6173 18.5544 17.7622 19.774L18.8502 18.686C19.0832 18.4556 19.3772 18.2969 19.6976 18.2285C20.018 18.1602 20.3513 18.1852 20.6579 18.3004C21.4352 18.5905 22.2429 18.7917 23.0654 18.9001C23.4816 18.9589 23.8616 19.1685 24.1333 19.4892C24.405 19.8098 24.5494 20.2192 24.539 20.6393Z" stroke="currentColor" stroke-linecap="round" stroke-linejoin="round"/>
</g>
</svg>
