<svg width="32" height="32" viewBox="0 0 32 32" fill="none" xmlns="http://www.w3.org/2000/svg">
<path d="M22.8475 15.5H9.15181C9.06811 15.5 8.99963 15.5474 8.99963 15.6053V16.3947C8.99963 16.4526 9.06811 16.5 9.15181 16.5H22.8475C22.9312 16.5 22.9996 16.4526 22.9996 16.3947V15.6053C22.9996 15.5474 22.9312 15.5 22.8475 15.5Z" fill="currentColor" stroke="currentColor"/>
<path d="M15.5 9.15217V22.8478C15.5 22.9315 15.5474 23 15.6053 23H16.3947C16.4526 23 16.5 22.9315 16.5 22.8478V9.15217C16.5 9.06848 16.4526 9 16.3947 9H15.6053C15.5474 9 15.5 9.06848 15.5 9.15217Z" fill="currentColor" stroke="currentColor"/>
</svg>
