<svg width="32" height="33" viewBox="0 0 32 33" fill="none" xmlns="http://www.w3.org/2000/svg">
<circle cx="15.999" cy="12.0732" r="4" stroke="currentColor"/>
<path d="M23.499 22.8849L23.499 22.8867C23.5001 23.1838 23.3924 23.4785 23.1832 23.7233C22.9835 23.9569 22.7015 24.1322 22.3749 24.216L9.62338 24.2098C9.29758 24.1262 9.01605 23.9516 8.81648 23.7189L8.81648 23.7188C8.60736 23.475 8.49902 23.1812 8.49902 22.8849C8.49902 21.0935 9.27718 19.3655 10.6794 18.0839L10.6794 18.0839C12.0832 16.8008 13.996 16.0732 15.9986 16.0732C18.0013 16.0732 19.9141 16.8008 21.3178 18.0838L21.3178 18.0839C22.7202 19.3656 23.499 21.0938 23.499 22.8849Z" stroke="currentColor"/>
</svg>
