<svg width="32" height="33" viewBox="0 0 32 33" fill="none" xmlns="http://www.w3.org/2000/svg">
<g id="icon/publications">
<path id="Rectangle 77185" d="M8.18277 7.1524H4.99902V19.1524H26.999V7.1524H23.8441" stroke="inherit"/>
<path id="Rectangle 77186" d="M12.999 19.1524V24.1524H18.999V19.1524" stroke="inherit" stroke-linejoin="round"/>
<path id="Vector 21" d="M10.999 24.1524H20.999" stroke="inherit" stroke-linecap="square" stroke-linejoin="round"/>
<g id="Vector">
<path d="M15.9955 15.5056C15.9469 15.5057 15.8989 15.4959 15.8541 15.4768C14.6878 14.9769 13.432 14.719 12.1629 14.719C10.8938 14.719 9.63793 14.9769 8.47164 15.4768C8.36116 15.5244 8.23423 15.5131 8.13375 15.447C8.03328 15.381 7.97281 15.2688 7.97266 15.1485V5.09465C7.9725 4.95202 8.05713 4.82308 8.18807 4.76646C9.44393 4.22808 10.7959 3.9505 12.1621 3.9505C13.5282 3.9505 14.8805 4.22808 16.1361 4.76646C16.2671 4.82308 16.3517 4.95217 16.3515 5.09465V15.1485C16.3515 15.2432 16.3138 15.3342 16.2469 15.4013C16.1798 15.4682 16.0889 15.5057 15.9939 15.5056L15.9955 15.5056ZM12.1612 14.0042C13.3469 14.0036 14.5235 14.2125 15.6365 14.6212V5.33467C13.4058 4.4447 10.9184 4.4447 8.6878 5.33467V14.6212C9.80088 14.2125 10.9772 14.0035 12.1629 14.0042H12.1612Z" fill="inherit"/>
<path d="M15.9955 15.5056C16.0442 15.5057 16.092 15.4959 16.1368 15.4768C17.3031 14.9769 18.559 14.719 19.8281 14.719C21.0972 14.719 22.353 14.9769 23.5193 15.4768C23.6298 15.5244 23.7567 15.5131 23.8572 15.447C23.9577 15.381 24.0181 15.2688 24.0183 15.1485V5.09465C24.0184 4.95202 23.9338 4.82308 23.8029 4.76646C22.547 4.22808 21.195 3.9505 19.8289 3.9505C18.4627 3.9505 17.1105 4.22808 15.8548 4.76646C15.7239 4.82308 15.6393 4.95217 15.6394 5.09465V15.1485C15.6394 15.2432 15.6771 15.3342 15.744 15.4013C15.8111 15.4682 15.9021 15.5057 15.997 15.5056L15.9955 15.5056ZM19.8298 14.0042C18.6441 14.0036 17.4674 14.2125 16.3544 14.6212V5.33467C18.5852 4.4447 21.0725 4.4447 23.3031 5.33467V14.6212C22.1901 14.2125 21.0138 14.0035 19.8281 14.0042H19.8298Z" fill="inherit"/>
<path d="M18.0458 7.73128C17.879 7.73175 17.7339 7.61665 17.6967 7.45402C17.6593 7.29138 17.7394 7.12459 17.8898 7.05228C19.2715 6.38187 20.5824 6.38541 21.7861 7.06213C21.8704 7.10767 21.9332 7.18522 21.96 7.27738C21.9866 7.3694 21.9752 7.46849 21.9281 7.55204C21.8812 7.63559 21.8026 7.69683 21.7101 7.72206C21.6175 7.74714 21.5187 7.73391 21.4359 7.68559C20.4347 7.12244 19.3766 7.12551 18.2017 7.69544C18.1531 7.71914 18.0998 7.73128 18.0458 7.73128Z" fill="inherit"/>
<path d="M18.0458 10.0663C17.879 10.0667 17.7339 9.95164 17.6967 9.789C17.6593 9.62637 17.7394 9.45958 17.8898 9.38727C19.2715 8.71686 20.5824 8.7204 21.7861 9.39712C21.8704 9.44266 21.9332 9.52021 21.96 9.61237C21.9866 9.70438 21.9752 9.80348 21.9281 9.88703C21.8812 9.97057 21.8026 10.0318 21.7101 10.057C21.6175 10.0821 21.5187 10.0689 21.4359 10.0206C20.4342 9.45743 19.3761 9.4605 18.2017 10.0304C18.1531 10.0541 18.0998 10.0663 18.0458 10.0663Z" fill="inherit"/>
<path d="M10.5066 7.73128C10.3398 7.73175 10.1947 7.61665 10.1575 7.45402C10.1201 7.29138 10.2003 7.12459 10.3506 7.05228C11.7323 6.38187 13.0432 6.38541 14.2474 7.06213C14.3319 7.10767 14.3945 7.18522 14.4211 7.27738C14.4479 7.3694 14.4365 7.46849 14.3894 7.55204C14.3425 7.63559 14.2639 7.69683 14.1714 7.72206C14.0788 7.74714 13.98 7.73391 13.8972 7.68559C12.8955 7.12244 11.8374 7.12551 10.6627 7.69544C10.614 7.71914 10.5606 7.73128 10.5066 7.73128Z" fill="inherit"/>
<path d="M10.5066 12.4005C10.3398 12.401 10.1947 12.2859 10.1575 12.1232C10.1201 11.9608 10.2003 11.7938 10.3506 11.7215C11.7323 11.0516 13.0432 11.0546 14.2474 11.7314C14.4204 11.828 14.4821 12.0468 14.3853 12.2196C14.2887 12.3924 14.07 12.4542 13.8972 12.3574C12.8955 11.7943 11.8374 11.7974 10.6626 12.3673C10.6137 12.3899 10.5605 12.4013 10.5066 12.4005Z" fill="inherit"/>
<path d="M18.0458 12.4005C17.879 12.401 17.7339 12.2859 17.6967 12.1232C17.6593 11.9608 17.7394 11.7938 17.8898 11.7215C19.2715 11.0516 20.5824 11.0546 21.7866 11.7314C21.9595 11.828 22.0212 12.0468 21.9245 12.2196C21.8278 12.3924 21.6092 12.4542 21.4364 12.3574C20.4347 11.7943 19.3766 11.7974 18.2018 12.3673C18.1529 12.3899 18.0996 12.4013 18.0458 12.4005Z" fill="inherit"/>
<path d="M10.5066 10.0663C10.3398 10.0667 10.1947 9.95164 10.1575 9.789C10.1201 9.62637 10.2003 9.45958 10.3506 9.38727C11.7323 8.71686 13.0432 8.7204 14.2474 9.39712C14.4159 9.49559 14.4742 9.71085 14.3787 9.88102C14.2831 10.051 14.0689 10.1132 13.8972 10.0206C12.8955 9.45742 11.8374 9.46049 10.6626 10.0304C10.614 10.0541 10.5606 10.0663 10.5066 10.0663Z" fill="inherit"/>
</g>
</g>
</svg>
