<svg width="12" height="13" viewBox="0 0 12 13" fill="none" xmlns="http://www.w3.org/2000/svg">
<path id="rate" d="M11.6121 4.37789L8.01478 3.83041L6.40666 0.416445C6.36274 0.322973 6.29048 0.247305 6.20122 0.201311C5.97736 0.0855834 5.70532 0.182023 5.59339 0.416445L3.98528 3.83041L0.38791 4.37789C0.288731 4.39272 0.198053 4.44168 0.128627 4.51587C0.0446959 4.6062 -0.00155415 4.72774 3.98784e-05 4.85377C0.0016339 4.97979 0.0509416 5.1 0.137128 5.18798L2.73987 7.84526L2.12496 11.5975C2.11054 11.6848 2.11976 11.7746 2.15159 11.8566C2.18341 11.9387 2.23655 12.0098 2.305 12.0619C2.37344 12.1139 2.45444 12.1448 2.53882 12.1511C2.6232 12.1574 2.70757 12.1389 2.78238 12.0975L6.00003 10.326L9.21768 12.0975C9.30553 12.1465 9.40754 12.1628 9.5053 12.145C9.75183 12.1005 9.9176 11.8557 9.8751 11.5975L9.26019 7.84526L11.8629 5.18798C11.9338 5.11528 11.9805 5.02032 11.9947 4.91646C12.033 4.65682 11.8601 4.41646 11.6121 4.37789V4.37789Z" fill="#FADB14"/>
</svg>
