<svg width="45" height="45" viewBox="0 0 45 45" fill="none" xmlns="http://www.w3.org/2000/svg">
<g id="icon/blue/thumbs">
<path id="Vector 38" d="M19 21.2L22.2 14C22.8365 14 23.4469 14.2529 23.897 14.7029C24.3471 15.153 24.5999 15.7635 24.5999 16.4V19.6H29.1279C29.3598 19.5973 29.5896 19.6452 29.8012 19.7401C30.0128 19.8351 30.2012 19.9749 30.3534 20.15C30.5056 20.325 30.6179 20.531 30.6826 20.7538C30.7472 20.9765 30.7627 21.2106 30.7279 21.44L29.6239 28.6399C29.566 29.0214 29.3723 29.3692 29.0782 29.6191C28.7842 29.869 28.4098 30.0043 28.0239 29.9999H19M19 21.2V29.9999M19 21.2H15V29.9999H19" stroke="currentColor"/>
</g>
</svg>
