<svg xmlns="http://www.w3.org/2000/svg" width="33" height="32" viewBox="0 0 33 32" fill="none">
  <path fill-rule="evenodd" clip-rule="evenodd" d="M23.7901 7.39721C24.0444 7.14288 24.3893 7 24.749 7C25.1087 7 25.4536 7.14288 25.708 7.39721C25.9623 7.65154 26.1052 7.99648 26.1052 8.35616C26.1052 8.71583 25.9623 9.06077 25.708 9.3151L17.4934 17.5297L14.9362 18.169L15.5755 15.6118L23.7901 7.39721ZM24.749 6C24.1241 6 23.5248 6.24824 23.083 6.6901L14.7705 15.0026L14.6725 15.1005L14.639 15.2349L13.764 18.7349L13.5618 19.5433L14.3703 19.3412L17.8703 18.4662L18.0046 18.4326L18.1026 18.3347L26.4151 10.0222C26.8569 9.58034 27.1052 8.98105 27.1052 8.35616C27.1052 7.73126 26.8569 7.13197 26.4151 6.6901C25.9732 6.24824 25.3739 6 24.749 6ZM8.99902 7.8562H8.49902V8.3562V24.1062V24.6062H8.99902H24.749H25.249V24.1062V16.2312V15.7312H24.249V16.2312V23.6062H9.49902V8.8562H16.874H17.374V7.8562H16.874H8.99902Z" stroke="currentColor" fill="currentColor"/>
</svg>