<svg width="32" height="32" viewBox="0 0 32 32" fill="none" xmlns="http://www.w3.org/2000/svg">
<path d="M14.2008 8.64845V7.20951C14.2046 7.11067 14.2765 7.00423 14.4101 7H17.6019C17.7115 7 17.8112 7.09972 17.8112 7.20936V8.63514C18.5606 8.82232 19.2664 9.1267 19.9108 9.51813L20.9441 8.51091C21.0442 8.43587 21.1306 8.41148 21.2385 8.51091L23.4884 10.7674C23.5649 10.8448 23.5649 10.9844 23.4884 11.0618L22.4812 12.0755C22.8779 12.7285 23.1772 13.4562 23.3576 14.2013H24.79C24.8996 14.2013 24.9993 14.301 24.9993 14.4106V17.596C24.9992 17.7056 24.8996 17.8053 24.79 17.8053H23.3576C23.1715 18.5595 22.8776 19.2741 22.4812 19.9245L23.4884 20.9448C23.5649 21.0222 23.5649 21.1618 23.4884 21.2392L21.2385 23.4891C21.1611 23.5656 21.0215 23.5656 20.9441 23.4891L19.9304 22.4819C19.2832 22.8701 18.5705 23.1713 17.8112 23.3583V24.7906C17.8111 24.9003 17.7115 25 17.6019 25H14.4101C14.3005 24.9999 14.2008 24.9003 14.2008 24.7906V23.3583C13.44 23.172 12.7246 22.878 12.0685 22.4819L11.0678 23.4891C10.99 23.5695 10.8447 23.5695 10.7669 23.4891L8.51042 21.2393C8.43392 21.1619 8.43392 21.0224 8.51042 20.945L9.51764 19.9312C9.1277 19.2805 8.82826 18.5636 8.64781 17.8055H7.20887C7.09923 17.8053 6.99951 17.7058 6.99951 17.5961V14.4108C6.99951 14.3011 7.09923 14.2014 7.20873 14.2014H8.63466C8.82228 13.4355 9.13208 12.7216 9.52422 12.0691L8.51042 11.0619C8.43392 10.9845 8.43392 10.8449 8.51042 10.7676L10.7669 8.51106C10.8563 8.43572 10.9491 8.42214 11.0678 8.51106L12.0685 9.52485C12.7166 9.12718 13.4359 8.83416 14.2008 8.64845Z" stroke="#E9E9E9"/>
<circle cx="15.9995" cy="16" r="3.5" stroke="#E9E9E9"/>
</svg>
