<svg width="32" height="32" viewBox="0 0 32 32" fill="none" xmlns="http://www.w3.org/2000/svg">
<g id="sorting">
<path id="Union" fill-rule="evenodd" clip-rule="evenodd" d="M13.5503 20.1751H15.7663C15.9616 20.1751 16.0695 20.3516 15.95 20.4693L12.6843 23.6805C12.6625 23.7022 12.6346 23.7197 12.6028 23.7317C12.571 23.7437 12.536 23.75 12.5006 23.75C12.4652 23.75 12.4303 23.7437 12.3985 23.7317C12.3666 23.7197 12.3388 23.7022 12.3169 23.6805L9.05132 20.4693C8.92886 20.3516 9.03965 20.1751 9.23501 20.1751H11.451V8.18104C11.451 8.08147 11.5559 8 11.6842 8H13.317C13.4453 8 13.5503 8.08147 13.5503 8.18104V20.1751ZM18.4497 11.5749H16.2337C16.0384 11.5749 15.9305 11.3984 16.05 11.2807L19.3157 8.06946C19.3375 8.04782 19.3654 8.03032 19.3972 8.01829C19.429 8.00625 19.464 8 19.4994 8C19.5348 8 19.5697 8.00625 19.6015 8.01829C19.6334 8.03032 19.6612 8.04782 19.6831 8.06946L22.9487 11.2807C23.0711 11.3984 22.9603 11.5749 22.765 11.5749H20.549V23.569C20.549 23.6685 20.4441 23.75 20.3158 23.75H18.683C18.5547 23.75 18.4497 23.6685 18.4497 23.569V11.5749Z" stroke="currentColor" fill="currentColor"/>
</g>
</svg>
