<svg width="24" height="24" viewBox="0 0 24 24" fill="none" xmlns="http://www.w3.org/2000/svg">
<g id="icon/sync 24">
<path id="Union" fill-rule="evenodd" clip-rule="evenodd" d="M12 4C7.58172 4 4 7.58172 4 12H3C3 7.02944 7.02944 3 12 3C14.8877 3 17.4578 4.3605 19.1038 6.47346L20.2642 5.5656L20.5376 9.16077L17.1138 8.03045L18.3162 7.08967C16.8516 5.20852 14.567 4 12 4ZM12 20C16.4183 20 20 16.4183 20 12H21C21 16.9706 16.9706 21 12 21C9.15501 21 6.61824 19.6794 4.96974 17.6197L3.86282 18.4899L3.58113 14.8953L7.0075 16.0178L5.75594 17.0017C7.22288 18.8305 9.47475 20 12 20Z" stroke="currentColor" fill="currentColor"/>
</g>
</svg>
