<svg width="32" height="32" viewBox="0 0 32 32" fill="none" xmlns="http://www.w3.org/2000/svg">
<g id="icon/trash">
<path id="Union" fill-rule="evenodd" clip-rule="evenodd" d="M11.6861 6H12.1861H19.6147H20.1147V6.5V9.80052H22.3937L22.4004 9.80048L22.4071 9.80052H24.5H25V10.8005H24.5H22.9004V25.5024V26.0024H22.4004H9.40038H8.90038V25.5024V10.8005H7.5H7V9.80052H7.5H9.38889H9.39371L9.40038 9.80048L9.40706 9.80052H11.6861V6.5V6ZM19.1147 7V9.80052H12.6861V7H19.1147ZM9.90038 10.8005H21.9004V25.0024H9.90038V10.8005ZM13 14H14V22H13V14ZM18 14H19V22H18V14Z" fill="currentColor"/>
</g>
</svg>
