<svg width="32" height="33" viewBox="0 0 32 33" fill="none" xmlns="http://www.w3.org/2000/svg">
<g id="icon/megapromo">
<g id="Group 625835">
<path id="Vector" d="M16.0644 30.2732V20.2076L5.99878 15.4427V25.2338L16.0644 30.2732Z" stroke="currentColor" stroke-linejoin="round"/>
<path id="Vector_2" d="M26.1301 25.2338V15.4427L16.0645 20.2076V30.2732L26.1301 25.2338Z" stroke="currentColor" stroke-linejoin="round"/>
<g id="Vector (Stroke)">
<path d="M26.3473 14.9924L25.9128 15.893L19.5228 12.81L19.491 12.1591L19.7718 11.8199L26.3473 14.9924Z" fill="currentColor"/>
<path d="M6.21603 15.893L5.78149 14.9924L12.2864 11.8539L12.4985 12.1141L12.4726 12.81L6.21603 15.893Z" fill="currentColor"/>
</g>
<path id="Vector_3" d="M20.429 25.4004C20.5691 25.8743 21.1294 25.4546 21.2996 25.2845C21.43 25.1541 21.5271 24.9449 21.5271 24.7598C21.5271 24.0264 20.2957 24.8001 20.429 25.4004Z" fill="currentColor"/>
<path id="Vector_4" d="M22.3079 20.1882C20.8947 19.2654 19.1986 21.5331 19.6063 22.8382L20.3384 22.2891C20.3384 21.701 20.7478 20.825 21.4364 20.825C21.6676 20.825 21.8025 20.9599 21.8025 21.1911C21.8025 21.9545 21.0451 22.3234 20.6129 23.5702C20.5406 23.7787 20.5574 24.1203 20.6129 24.3938L21.3449 23.8447C21.3449 23.469 21.455 23.1672 21.6195 22.8382C21.9978 22.0815 23.2454 20.897 22.3079 20.1882Z" fill="currentColor"/>
<path id="Vector_5" d="M10.4827 25.1937V21.4419L11.3977 21.8624V25.7427L10.4827 25.1937Z" fill="currentColor"/>
</g>
<path id="Vector_6" fill-rule="evenodd" clip-rule="evenodd" d="M16.0028 6.57315L17.5604 8.89903L20.2061 9.62824L18.4759 11.8349L18.5998 14.5732L15.97 13.6096L13.3985 14.5732L13.5054 11.7682L11.791 9.62824L14.4856 8.86031L16.0028 6.57315Z" fill="currentColor"/>
<g id="Group 625837">
<path id="Vector_7" d="M15.9099 4.5543L15.9099 1.66299" stroke="currentColor" stroke-width="0.7" stroke-miterlimit="10"/>
<path id="Vector_8" d="M20.4349 8.10867L23.3262 8.10867" stroke="currentColor" stroke-width="0.7" stroke-miterlimit="10"/>
<path id="Vector_9" d="M8.40605 8.10855L11.2974 8.10855" stroke="currentColor" stroke-width="0.7" stroke-miterlimit="10"/>
<path id="Vector_10" d="M13.2901 5.66285L10.9102 3.26297" stroke="currentColor" stroke-width="0.7" stroke-miterlimit="10"/>
<path id="Vector_11" d="M18.71 5.66285L21.0899 3.26297" stroke="currentColor" stroke-width="0.7" stroke-miterlimit="10"/>
</g>
<path id="Ellipse 199" d="M11.6138 20.8342C11.6005 21.1975 11.2312 21.2727 10.8442 21.1037C10.5397 21.0034 10.356 20.6816 10.439 20.4296C10.522 20.1776 10.8362 20.0546 11.1408 20.1549C11.3575 20.2263 11.627 20.4709 11.6138 20.8342Z" fill="currentColor"/>
</g>
</svg>
