<svg xmlns="http://www.w3.org/2000/svg" width="33" height="32" viewBox="0 0 33 32" fill="none">
  <path fill-rule="evenodd" clip-rule="evenodd" d="M23.2042 16.5996H24.8001C25.0758 16.5996 25.3047 16.8286 25.3047 17.1043V17.5175C25.5071 17.5853 25.7023 17.6682 25.889 17.764L26.2105 17.4506L26.2311 17.4351C26.2734 17.4034 26.3746 17.3323 26.5177 17.3232C26.6831 17.3126 26.8097 17.3874 26.8894 17.4609L26.8956 17.4666L28.0278 18.6021C28.2201 18.7966 28.2201 19.1172 28.0278 19.3117L27.7351 19.6063C27.8317 19.7973 27.9138 19.9966 27.98 20.2002H28.3941C28.6698 20.2002 28.8988 20.4292 28.8988 20.7049V22.2976C28.8984 22.5724 28.6703 22.8023 28.3941 22.8023H27.9793C27.9128 23.0061 27.8313 23.204 27.7349 23.3941L28.0278 23.6908C28.2199 23.8853 28.22 24.206 28.0278 24.4004L28.0262 24.402L26.9012 25.527L26.8996 25.5286C26.7051 25.7209 26.3845 25.7209 26.19 25.5286L25.8948 25.2354C25.7064 25.3305 25.5093 25.4126 25.3047 25.4798V25.8949C25.3044 26.1698 25.0763 26.3996 24.8001 26.3996H23.2042C22.9293 26.3992 22.6995 26.1711 22.6995 25.8949V25.4807C22.4943 25.4142 22.2956 25.3327 22.1045 25.2365L21.818 25.5249C21.6227 25.7238 21.2942 25.7241 21.0985 25.5258L19.9719 24.4025L19.9699 24.4005C19.7776 24.206 19.7776 23.8854 19.9699 23.6909L20.2634 23.3955C20.168 23.2059 20.0862 23.0076 20.02 22.8023H19.6036C19.3287 22.802 19.0989 22.5739 19.0989 22.2977V20.705C19.0989 20.4294 19.3276 20.2003 19.6035 20.2003H20.0156C20.0841 19.9931 20.1682 19.7944 20.2648 19.6048L19.9699 19.3118C19.7776 19.1173 19.7776 18.7967 19.9699 18.6022L19.9715 18.6005L21.1118 17.4603L21.1248 17.4493C21.1885 17.3955 21.2944 17.3295 21.4385 17.3246C21.5828 17.3196 21.6969 17.3781 21.7728 17.435L21.7967 17.4529L22.1045 17.7647C22.2952 17.6684 22.4941 17.5872 22.6995 17.5212V17.0967L22.6998 17.089C22.708 16.8758 22.8716 16.6099 23.1915 16.5998L23.2042 16.5996ZM23.4995 17.3996V18.1383L23.1939 18.2125C22.8493 18.2962 22.5287 18.4274 22.2426 18.603L21.9718 18.7691L21.4565 18.247L20.7471 18.9563L21.2656 19.4714L21.1041 19.7402C20.9264 20.0358 20.7882 20.3557 20.705 20.6955L20.6303 21.0003H19.8989V22.0023H20.639L20.7122 22.3097C20.7925 22.6472 20.9261 22.9677 21.1011 23.2596L21.261 23.5264L20.7461 24.0447L21.4568 24.7533L21.9711 24.2357L22.2401 24.3981C22.5327 24.5748 22.8527 24.7065 23.1946 24.7902L23.4995 24.8649V25.5996H24.5047V24.8653L24.8091 24.7904C25.1483 24.7068 25.4677 24.572 25.7585 24.3975L26.0254 24.2374L26.5441 24.7527L27.2526 24.0443L26.7356 23.5205L26.8981 23.2537C27.0743 22.9647 27.2059 22.6455 27.2896 22.3064L27.3646 22.0023H28.0988V21.0002H27.3632L27.2892 20.6944C27.2085 20.3614 27.0745 20.0359 26.8979 19.7451L26.7353 19.4775L27.2522 18.9573L26.5418 18.2448L26.0118 18.7615L25.7469 18.6005C25.4566 18.4243 25.1409 18.2884 24.8078 18.2053L24.5047 18.1296V17.3996H23.4995ZM23.9988 19.8996C23.1152 19.8996 22.3988 20.616 22.3988 21.4996C22.3988 22.3833 23.1152 23.0996 23.9988 23.0996C24.8825 23.0996 25.5988 22.3833 25.5988 21.4996C25.5988 20.616 24.8825 19.8996 23.9988 19.8996ZM21.5988 21.4996C21.5988 20.1741 22.6733 19.0996 23.9988 19.0996C25.3243 19.0996 26.3988 20.1741 26.3988 21.4996C26.3988 22.8251 25.3243 23.8996 23.9988 23.8996C22.6733 23.8996 21.5988 22.8251 21.5988 21.4996Z" fill="currentColor"/>
  <path fill-rule="evenodd" clip-rule="evenodd" d="M19.9993 11.5C19.9993 13.433 18.4323 15 16.4993 15C14.5663 15 12.9993 13.433 12.9993 11.5C12.9993 9.567 14.5663 8 16.4993 8C18.4323 8 19.9993 9.567 19.9993 11.5ZM18.8668 15.3276C20.1468 14.5342 20.9993 13.1167 20.9993 11.5C20.9993 9.01472 18.9845 7 16.4993 7C14.014 7 11.9993 9.01472 11.9993 11.5C11.9993 13.1166 12.8517 14.5341 14.1317 15.3276C12.9015 15.676 11.7697 16.294 10.8424 17.1416C9.3421 18.5128 8.49927 20.3725 8.49927 22.3118C8.49927 22.7322 8.65347 23.1403 8.93716 23.4712C9.22082 23.802 9.61789 24.0363 10.0644 24.1366L18.0581 24.1405C17.9154 23.82 17.7979 23.4857 17.7081 23.1403L10.1924 23.1367C9.98579 23.073 9.81512 22.9588 9.69628 22.8202C9.56174 22.6633 9.49927 22.4839 9.49927 22.3118C9.49927 20.6683 10.2128 19.0718 11.517 17.8798C12.8243 16.6849 14.6154 16 16.4993 16C17.6063 16 18.6812 16.2365 19.6446 16.6741C19.9209 16.4246 20.2188 16.1985 20.535 15.9989C20.0085 15.7176 19.4486 15.4924 18.8668 15.3276Z" fill="currentColor"/>
</svg>