<svg width="106" height="37" viewBox="0 0 106 37" fill="none" xmlns="http://www.w3.org/2000/svg">
<path fill-rule="evenodd" clip-rule="evenodd" d="M85.3065 0.987906V21.6068C85.3065 21.7166 85.2849 21.8254 85.2429 21.9268C85.2009 22.0283 85.1393 22.1205 85.0616 22.1981C84.984 22.2758 84.8918 22.3374 84.7903 22.3794C84.6889 22.4214 84.5801 22.443 84.4703 22.443H81.3661C81.2562 22.443 81.1475 22.4214 81.0461 22.3794C80.9446 22.3374 80.8524 22.2758 80.7748 22.1981C80.6971 22.1205 80.6355 22.0283 80.5935 21.9268C80.5514 21.8254 80.5298 21.7166 80.5298 21.6068V20.946C79.9325 21.6013 79.197 22.1155 78.3765 22.4514C77.556 22.7874 76.671 22.9367 75.7857 22.8885C71.6143 22.8885 68.1762 19.2266 68.1762 14.4818C68.1762 9.73708 71.6151 6.07512 75.7857 6.07512C76.671 6.02695 77.556 6.17625 78.3765 6.51222C79.197 6.84818 79.9325 7.36241 80.5298 8.01765V0.988611C80.5298 0.766819 80.6179 0.554115 80.7748 0.397285C80.9316 0.240455 81.1443 0.152344 81.3661 0.152344H84.4703C84.6919 0.152344 84.9045 0.240359 85.0613 0.397036C85.2182 0.553712 85.3064 0.766238 85.3065 0.987906ZM80.5305 14.4818C80.5118 13.7366 80.2737 13.0134 79.846 12.4028C79.4183 11.7922 78.82 11.3213 78.1261 11.049C77.4321 10.7767 76.6732 10.7152 75.9444 10.8721C75.2156 11.0289 74.5493 11.3972 74.0288 11.9309C73.5083 12.4646 73.1567 13.1399 73.0181 13.8724C72.8795 14.6049 72.96 15.362 73.2496 16.049C73.5391 16.7359 74.0248 17.3222 74.6459 17.7345C75.267 18.1468 75.9959 18.3668 76.7414 18.3669C77.2533 18.3896 77.7641 18.3038 78.2405 18.1152C78.7169 17.9266 79.1481 17.6394 79.5057 17.2725C79.8634 16.9056 80.1394 16.4673 80.3158 15.9862C80.4921 15.5052 80.5648 14.9922 80.5291 14.4811L80.5305 14.4818Z" fill="white"/>
<path d="M34.5508 12.6665V21.6068C34.5508 21.7166 34.5292 21.8253 34.4871 21.9268C34.4451 22.0283 34.3835 22.1204 34.3059 22.1981C34.2282 22.2758 34.136 22.3374 34.0345 22.3794C33.9331 22.4214 33.8243 22.4431 33.7145 22.4431H30.6103C30.5005 22.4431 30.3917 22.4214 30.2903 22.3794C30.1888 22.3374 30.0966 22.2758 30.019 22.1981C29.9413 22.1204 29.8797 22.0283 29.8377 21.9268C29.7957 21.8253 29.774 21.7166 29.774 21.6068V13.3649C29.8138 12.9855 29.7705 12.6019 29.6471 12.2409C29.5237 11.8798 29.3233 11.55 29.0596 11.2742C28.7959 10.9985 28.4754 10.7834 28.1203 10.644C27.7652 10.5045 27.3839 10.4441 27.0031 10.4668C25.2517 10.4668 24.0417 11.4856 24.0417 13.7472V21.6046C24.0417 21.8264 23.9536 22.0391 23.7967 22.196C23.6399 22.3528 23.4272 22.4409 23.2054 22.4409H20.1019C19.8801 22.4409 19.6674 22.3528 19.5106 22.196C19.3537 22.0391 19.2656 21.8264 19.2656 21.6046V7.35617C19.2656 7.13437 19.3537 6.92166 19.5106 6.76483C19.6674 6.608 19.8801 6.5199 20.1019 6.5199H23.2054C23.4272 6.5199 23.6399 6.608 23.7967 6.76483C23.9536 6.92166 24.0417 7.13437 24.0417 7.35617C24.0414 7.40501 24.0557 7.45281 24.0828 7.49348C24.1098 7.53415 24.1484 7.56585 24.1935 7.58453C24.2386 7.60321 24.2883 7.60801 24.3362 7.59834C24.384 7.58868 24.4279 7.56496 24.4623 7.53024C25.5955 6.52182 27.0795 5.999 28.5946 6.07442C31.8125 6.07442 34.5508 8.36722 34.5508 12.6665Z" fill="white"/>
<path fill-rule="evenodd" clip-rule="evenodd" d="M11.5368 17.7828C10.7678 18.3426 9.83756 18.6369 8.88657 18.6213C7.13517 18.6213 5.67081 18.0479 5.06688 16.3952H15.6612C15.863 16.3967 16.0583 16.3247 16.2108 16.1927C16.3633 16.0606 16.4624 15.8775 16.4897 15.6776C16.5379 15.2818 16.5617 14.8834 16.5608 14.4847C16.5608 9.67667 13.1219 6.07795 8.47306 6.07795C7.35476 6.03545 6.23967 6.22334 5.19706 6.62996C4.15444 7.03657 3.20657 7.65322 2.41232 8.44161C1.61807 9.23 0.994403 10.1733 0.580074 11.2129C0.165744 12.2524 -0.0304008 13.3661 0.00381701 14.4847C0.00381701 19.2294 3.37872 22.8914 8.82333 22.8914C9.98328 22.9447 11.1414 22.7526 12.222 22.3276C13.3026 21.9027 14.2814 21.2544 15.0943 20.4252C15.1819 20.3333 15.2475 20.2228 15.2863 20.1018C15.325 19.9809 15.3358 19.8528 15.3179 19.7271C15.3 19.6014 15.2538 19.4814 15.1828 19.3761C15.1119 19.2709 15.0179 19.1831 14.9081 19.1193L12.4604 17.7118C12.3167 17.6308 12.1522 17.5944 11.9878 17.607C11.8234 17.6197 11.6664 17.6809 11.5368 17.7828ZM10.5169 11.0069C11.1326 11.4593 11.5878 12.0965 11.816 12.8256H4.97025C5.19849 12.0965 5.65362 11.4593 6.26931 11.0069C6.885 10.5544 7.62908 10.3104 8.39312 10.3104C9.15716 10.3104 9.90124 10.5544 10.5169 11.0069Z" fill="white"/>
<path d="M65.4678 21.6068V7.35688C65.4678 7.13558 65.3801 6.92329 65.2238 6.76654C65.0676 6.6098 64.8557 6.52137 64.6344 6.52062H61.5316C61.3098 6.52062 61.0971 6.60872 60.9402 6.76555C60.7834 6.92238 60.6953 7.13509 60.6953 7.35688V15.2158C60.6953 17.4773 59.4853 18.4962 57.7339 18.4962C57.3531 18.5189 56.972 18.4584 56.6169 18.319C56.2618 18.1796 55.9413 17.9646 55.6777 17.6889C55.414 17.4132 55.2135 17.0835 55.0901 16.7226C54.9667 16.3616 54.9233 15.9781 54.9629 15.5987V7.35688C54.9629 7.24706 54.9413 7.1383 54.8993 7.03684C54.8572 6.93538 54.7957 6.8432 54.718 6.76555C54.6403 6.68789 54.5481 6.62628 54.4467 6.58426C54.3452 6.54223 54.2365 6.52062 54.1267 6.52062H51.0232C50.8014 6.52062 50.5887 6.60872 50.4318 6.76555C50.275 6.92238 50.1869 7.13509 50.1869 7.35688V16.2958C50.1869 20.595 52.9259 22.8878 56.1417 22.8878C57.6567 22.9633 59.1408 22.4405 60.274 21.432C60.3083 21.3973 60.3522 21.3736 60.4001 21.3639C60.448 21.3542 60.4976 21.359 60.5428 21.3777C60.5879 21.3964 60.6264 21.4281 60.6535 21.4688C60.6805 21.5094 60.6948 21.5572 60.6946 21.6061C60.6946 21.8279 60.7827 22.0406 60.9395 22.1974C61.0964 22.3542 61.3091 22.4423 61.5308 22.4423H64.6344C64.8555 22.4416 65.0674 22.3533 65.2236 22.1967C65.3798 22.0401 65.4676 21.828 65.4678 21.6068Z" fill="white"/>
<path fill-rule="evenodd" clip-rule="evenodd" d="M88.0121 14.4811C88.0059 12.8109 88.4955 11.1765 89.4189 9.78473C90.3423 8.39301 91.658 7.30664 93.1993 6.66319C94.7406 6.01975 96.4382 5.84817 98.077 6.17021C99.7159 6.49225 101.222 7.29343 102.406 8.47224C103.589 9.65106 104.395 11.1545 104.724 12.7922C105.052 14.4298 104.886 16.128 104.249 17.6717C103.611 19.2153 102.529 20.535 101.141 21.4636C99.7529 22.3921 98.1203 22.8878 96.4501 22.8878C95.3412 22.9001 94.241 22.6913 93.2138 22.2736C92.1865 21.8559 91.2528 21.2376 90.4672 20.4549C89.6816 19.6722 89.0599 18.7408 88.6384 17.7151C88.2168 16.6894 88.0039 15.59 88.0121 14.4811ZM100.112 14.4811C100.093 13.761 99.8627 13.0624 99.449 12.4728C99.0353 11.8831 98.4569 11.4285 97.7862 11.1658C97.1154 10.9032 96.3821 10.8441 95.678 10.9961C94.9739 11.148 94.3302 11.5042 93.8275 12.0201C93.3247 12.536 92.9853 13.1887 92.8516 13.8965C92.7179 14.6043 92.7959 15.3358 93.0758 15.9996C93.3557 16.6633 93.8251 17.2297 94.4253 17.6281C95.0255 18.0264 95.7298 18.2389 96.4501 18.239C96.9428 18.2522 97.4329 18.1633 97.8895 17.9779C98.3462 17.7924 98.7596 17.5145 99.1035 17.1615C99.4475 16.8085 99.7147 16.3881 99.8882 15.9268C100.062 15.4655 100.138 14.9733 100.112 14.4811Z" fill="white"/>
<path d="M47.2746 7.84855C47.3652 7.72383 47.4196 7.5765 47.4318 7.4228C47.4439 7.26911 47.4134 7.11504 47.3434 6.97763C47.2735 6.84022 47.167 6.72482 47.0356 6.64417C46.9042 6.56352 46.7531 6.52076 46.5989 6.52062H43.1117C42.9756 6.52068 42.8415 6.55396 42.7212 6.61761C42.6008 6.68125 42.4978 6.77331 42.4211 6.8858L40.1397 10.454L42.8908 13.9873L47.2746 7.84855Z" fill="white"/>
<path d="M47.401 21.1052L42.4872 14.5358L39.6729 10.9194L37.5662 14.0122C37.4693 14.1543 37.4186 14.3229 37.421 14.495C37.4234 14.667 37.4788 14.8341 37.5797 14.9735L42.7373 22.0963C42.8147 22.2034 42.9165 22.2907 43.0342 22.3508C43.1519 22.411 43.2822 22.4423 43.4144 22.4423H46.731C46.8863 22.4424 47.0385 22.3993 47.1706 22.3177C47.3027 22.2362 47.4095 22.1195 47.4791 21.9807C47.5486 21.8419 47.5781 21.6865 47.5644 21.5319C47.5506 21.3772 47.494 21.2295 47.401 21.1052Z" fill="white"/>
<path fill-rule="evenodd" clip-rule="evenodd" d="M56.5218 28.3339C56.135 28.1051 55.6923 27.988 55.2429 27.9957C54.7905 27.9825 54.3453 28.1112 53.9697 28.3638C53.625 28.6002 53.3666 28.9424 53.2336 29.3386V26.1854H52.0968V33.5462H53.2336V32.273C53.3666 32.6692 53.625 33.0114 53.9697 33.2478C54.3451 33.5002 54.79 33.6289 55.2422 33.6158C55.6916 33.6235 56.1343 33.5065 56.5211 33.2776C56.9029 33.0448 57.209 32.7062 57.4021 32.3028C57.6241 31.8339 57.7331 31.3195 57.7205 30.8008C57.7324 30.2854 57.6234 29.7744 57.4021 29.3088C57.2092 28.9055 56.9034 28.5669 56.5218 28.3339ZM54.0422 29.2143C54.3007 29.0636 54.5955 28.9862 54.8948 28.9904C55.1198 28.9803 55.3444 29.0182 55.5537 29.1016C55.7629 29.185 55.952 29.3121 56.1083 29.4743C56.4278 29.8386 56.592 30.3134 56.5659 30.7973C56.5937 31.2828 56.4293 31.7598 56.1083 32.1252C55.9521 32.2879 55.7632 32.4156 55.554 32.4998C55.3448 32.5841 55.1201 32.623 54.8948 32.614C54.5955 32.6183 54.3007 32.5409 54.0422 32.3902C53.7884 32.2392 53.5818 32.0205 53.4453 31.7586C53.2939 31.4635 53.2187 31.1352 53.2265 30.8037C53.2199 30.4738 53.2951 30.1474 53.4453 29.8537C53.5802 29.5887 53.7871 29.3671 54.0422 29.2143Z" fill="white"/>
<path d="M61.1018 32.0954L59.4605 28.0668L58.1873 28.0654L60.495 33.4169L59.3113 36.1523H60.5746L63.8869 28.0668H62.6237L61.1018 32.0954Z" fill="white"/>
<path d="M71.4794 27.4359V26.5236H66.4263V27.4359H68.3759V33.5462H69.5198V27.4359H71.4794Z" fill="white"/>
<path fill-rule="evenodd" clip-rule="evenodd" d="M77.3781 31.0296C77.4064 30.8687 77.4197 30.7055 77.4178 30.5422H77.415C77.4205 30.0887 77.3087 29.6415 77.0903 29.2441C76.876 28.8572 76.5555 28.5397 76.1666 28.329C75.7338 28.0991 75.2491 27.9843 74.7591 27.9957C74.2687 27.986 73.784 28.1024 73.3516 28.3339C72.944 28.5591 72.6106 28.8978 72.3917 29.3088C72.1511 29.7686 72.0313 30.282 72.0436 30.8008C72.0305 31.3229 72.1503 31.8397 72.3917 32.3028C72.6104 32.7143 72.9438 33.0535 73.3516 33.2791C73.784 33.5106 74.2687 33.627 74.7591 33.6173C75.1879 33.6232 75.6128 33.5362 76.0046 33.3622C76.3592 33.2061 76.6701 32.9653 76.9098 32.6609C77.1425 32.3612 77.2995 32.0097 77.3674 31.6364H76.1538C76.1001 31.9452 75.9268 32.2204 75.6714 32.4023C75.3915 32.6001 75.0548 32.7014 74.7122 32.6908C74.3113 32.7022 73.922 32.5557 73.628 32.2829C73.4705 32.1157 73.348 31.9187 73.2677 31.7035C73.1874 31.4882 73.151 31.2591 73.1605 31.0296H77.3781ZM76.0899 29.6121C76.2334 29.8894 76.2971 30.201 76.2739 30.5123H73.1605C73.157 30.2893 73.1984 30.0679 73.2821 29.8611C73.3658 29.6544 73.4902 29.4665 73.6479 29.3088C73.9528 29.0344 74.3519 28.8883 74.762 28.9009C75.029 28.8983 75.2929 28.9579 75.5329 29.075C75.7696 29.1922 75.9641 29.3799 76.0899 29.6121Z" fill="white"/>
<path d="M79.646 33.5462V26.1854H78.5092V33.5462H79.646Z" fill="white"/>
<path fill-rule="evenodd" clip-rule="evenodd" d="M86.0718 31.0296C86.1002 30.8687 86.1135 30.7055 86.1116 30.5422H86.1088C86.1143 30.0887 86.0024 29.6415 85.7841 29.2441C85.5698 28.8572 85.2493 28.5397 84.8604 28.329C84.4275 28.0991 83.9429 27.9843 83.4529 27.9957C82.9625 27.986 82.4778 28.1024 82.0454 28.3339C81.6378 28.5591 81.3044 28.8978 81.0855 29.3088C80.8449 29.7686 80.7251 30.282 80.7373 30.8008C80.7243 31.3229 80.8441 31.8397 81.0855 32.3028C81.3041 32.7143 81.6376 33.0535 82.0454 33.2791C82.4778 33.5106 82.9625 33.627 83.4529 33.6173C83.8804 33.6227 84.3041 33.5357 84.6948 33.3622C85.0505 33.2065 85.3623 32.9657 85.6029 32.6609C85.8356 32.3612 85.9925 32.0097 86.0604 31.6364H84.8469C84.7932 31.9452 84.6198 32.2204 84.3645 32.4023C84.0844 32.6003 83.7474 32.7015 83.4046 32.6908C83.0037 32.7022 82.6143 32.5557 82.3203 32.2829C82.1628 32.1157 82.0403 31.9187 81.96 31.7035C81.8798 31.4882 81.8433 31.2591 81.8528 31.0296H86.0718ZM84.7837 29.6121C84.9272 29.8894 84.9909 30.201 84.9677 30.5123H81.8528C81.8495 30.2892 81.8911 30.0677 81.9751 29.8609C82.0591 29.6542 82.1837 29.4664 82.3417 29.3088C82.6466 29.0344 83.0457 28.8883 83.4557 28.9009C83.7227 28.8983 83.9867 28.9579 84.2266 29.075C84.4633 29.1922 84.6579 29.3799 84.7837 29.6121Z" fill="white"/>
<path d="M91.1021 28.1186C90.8379 28.0122 90.554 27.9636 90.2695 27.9758H90.2666C89.844 27.9677 89.4285 28.0854 89.073 28.314C88.7273 28.5406 88.468 28.877 88.3369 29.269V28.0654H87.2001V33.5462H88.3369V30.6331C88.3028 30.1721 88.449 29.7159 88.7447 29.3606C88.8845 29.2158 89.0535 29.1024 89.2404 29.0278C89.4273 28.9532 89.6279 28.9192 89.829 28.9279C90.0205 28.9185 90.2118 28.9501 90.3902 29.0204C90.5685 29.0907 90.7299 29.1982 90.8635 29.3358C91.1319 29.6515 91.2674 30.059 91.2415 30.4726V33.5462H92.3783V30.3532C92.4205 29.7138 92.2138 29.0829 91.8013 28.5926C91.6047 28.3866 91.3663 28.225 91.1021 28.1186Z" fill="white"/>
<path d="M93.5903 26.2138C93.556 26.2961 93.5396 26.3847 93.5421 26.4738H93.5392C93.5365 26.5618 93.5532 26.6493 93.588 26.7301C93.6229 26.8109 93.6751 26.883 93.741 26.9413C93.8877 27.0657 94.0761 27.1297 94.2682 27.1204C94.4617 27.1291 94.6515 27.0653 94.8004 26.9413C94.867 26.8835 94.9199 26.8115 94.9552 26.7307C94.9905 26.6498 95.0073 26.562 95.0043 26.4738C95.0066 26.3843 94.9896 26.2952 94.9544 26.2129C94.9193 26.1305 94.8667 26.0566 94.8004 25.9964C94.6543 25.8666 94.4634 25.7988 94.2682 25.8074C94.0744 25.7982 93.8849 25.8662 93.741 25.9964C93.676 26.0574 93.6246 26.1314 93.5903 26.2138Z" fill="white"/>
<path d="M94.8352 33.5462V28.0654H93.6984V33.5462H94.8352Z" fill="white"/>
<path d="M98.9632 33.5462V32.5614H98.4119C98.1923 32.5847 97.9725 32.5204 97.8001 32.3824C97.6633 32.1962 97.6012 31.9655 97.6261 31.7358V29.0302H98.9519V28.0654H97.6289V26.7026H96.485V28.0654H95.6992V29.0267H96.485V31.7124C96.4601 31.9655 96.4874 32.221 96.5653 32.4631C96.6431 32.7052 96.7698 32.9288 96.9376 33.1199C97.3091 33.4271 97.7846 33.5798 98.2655 33.5462H98.9632Z" fill="white"/>
<path d="M102.315 32.0939L100.674 28.0654H99.3981L101.706 33.4169L100.522 36.1523H101.785L105.098 28.0654H103.837L102.315 32.0939Z" fill="white"/>
</svg>
